<?xml version="1.0" encoding="UTF-8"?>
<svg id="Layer_2" data-name="Layer 2" xmlns="http://www.w3.org/2000/svg" viewBox="0 0 626.85 190.86">
  <defs>
    <style>
      .cls-1, .cls-2 {
        fill: #fff;
      }

      .cls-2 {
        font-family: NunitoSans-Medium, 'Nunito Sans';
        font-size: 21.4px;
        font-variation-settings: 'wght' 500, 'wdth' 100, 'opsz' 12, 'YTLC' 500;
        font-weight: 500;
      }
    </style>
  </defs>
  <g id="Layer_1-2" data-name="Layer 1">
    <g>
      <g>
        <path class="cls-1" d="m97.25,15.75c1.42.61,3.05.6,4.59.5,6.54-.42,13.08-.86,19.62-1.3,5.92-.4,11.83-.8,17.75-1.18.66-.04,1.31-.06,1.98-.06-.64.41-1.3.8-1.98,1.19-.39.23-.79.46-1.17.69-1.96,1.18-3.92,2.36-5.88,3.54-8.03,4.83-16.33,9.83-24.37,14.96-2.6,1.66-5.14,4.09-7.54,7.22-1.56,2.03-2.18,4.19-1.78,6.22.39,2,1.71,3.72,3.84,4.98,2.44,1.45,6.27,3.31,10.66,3.96,4.19.62,8.47.74,12.62.85,1.33.04,2.66.07,3.98.12,5.37.21,10.74.4,16.11.59,6.83.24,13.89.49,20.83.78,12.57.52,25.14,1.07,37.71,1.61,15.38.67,30.76,1.33,46.14,1.96,11.28.46,22.75.88,33.85,1.29,9.85.36,19.7.72,29.56,1.11,5.31.21,10.71.48,15.92.75,5.08.26,10.33.52,15.51.73,9.09.37,18.78.69,28.14,1.01l9.82.33s-36.94-5.86-49.95-6.8l-14.58-1.05c-3.33-.24-6.65-.47-9.98-.71-6.8-.48-13.6-.96-20.39-1.48-8.31-.64-16.62-1.3-24.94-1.95-7.12-.56-14.23-1.13-21.35-1.68-5.22-.4-10.44-.78-15.66-1.17-9.23-.67-18.77-1.37-28.13-2.18-20.1-1.75-40.59-2.4-62.62-4.58-5.18-.51-10.45-1.29-15.52-2.16-3.55-.61-3.44-3.66.77-6.1,12.11-7,25.76-15.37,42.54-24.35.98-.52,2.33-.83,4.15-.93,2.26-.13,4.53-.27,6.79-.4,8.55-.51,17.39-1.04,26.09-1.27,22.46-.58,46.35-1.16,69.9-1.3,10.82-.07,22.2.39,34.79,1.4,10.41.83,20.36,4.72,29.99,8.48l1.15.45c35.11,13.69,68.68,29.96,99.74,45.51,10.26,5.14,21.13,7.87,32.32,8.13,13.95.32,28.91,2.19,45.71,5.72,2.7.57,5.45,1.1,8.11,1.61,1.23.24,2.46.47,3.69.71l11.49,2.25-10.56-5.08c-5.34-2.57-11.32-4.87-18.84-7.24-2.01-.64-4.02-1.3-6.02-1.96-7.71-2.55-15.69-5.2-24.05-6.18l-4.1-.48c-5.65-.67-11.48-1.36-17.24-1.95-5.79-.59-10.61-1.94-15.17-4.22-33.41-16.79-67.12-33.53-100.18-49.75-4.17-2.05-8.9-3.43-13.31-3.9l-1.39-.15c-11.64-1.23-23.68-2.51-35.57-2.63-33.35-.35-58.94-.22-82.99.4-28.86.75-58.18,1.9-86.54,3-11.59.45-23.19.91-34.78,1.33-.9.03-1.77.16-2.61.29-.37.05-.73.11-1.1.16l-4.21.53,3.61,2.23c4.31,2.67,8.95,5.01,15.05,7.62Z"/>
        <path class="cls-1" d="m35.28,65.97c2.15,1.71,4.27,3.36,6.35,4.98,4.77,3.72,9.28,7.23,13.57,11.01,4.15,3.65,8.77,5.32,14.99,5.41,29.03.4,58.54.93,87.08,1.44,8.92.16,17.85.32,26.77.48l142.84,2.52c29.62.53,60.25,1.07,90.37,1.54,4.31.07,8.65.09,12.97.09,3.66,0,7.31-.02,10.9-.03,3.64-.02,7.28-.03,10.92-.03,0,0-67.96-5.95-88.02-6.74l-35.56-1.4c-19.16-.76-38.31-1.51-57.47-2.23-13.35-.5-26.7-.97-40.04-1.44-8.61-.3-17.22-.6-25.83-.92-7.18-.26-14.36-.55-21.54-.84l-4.9-.2c-8.93-.36-17.86-.73-26.79-1.1-22.95-.95-46.67-1.94-70.02-2.66-9.09-.28-16.39-1.61-22.46-7.23-1.61-1.49-3.41-2.72-5.31-4.02-.36-.25-.73-.5-1.1-.75l50.24-37.99-1.9-1.14c-1.25-.75-2.43-1.48-3.56-2.17-2.41-1.48-4.69-2.88-6.99-4.16-.83-.46-1.64-.97-2.49-1.51-2.36-1.5-5.04-3.19-8.83-4.13l-4.38-1.09,11.55,14.11-52.89,38.97,1.53,1.22Z"/>
        <path class="cls-1" d="m287.67,125.86c-1.08-.85-2.72-1.28-4.92-1.28h-7.58l-.71,10.18h7.58c2.2,0,3.9-.43,5.1-1.28,1.2-.85,1.86-2.13,1.97-3.84.12-1.67-.36-2.93-1.44-3.78Z"/>
        <path class="cls-1" d="m340.36,125.86c-1.08-.85-2.72-1.28-4.92-1.28h-7.58l-.71,10.18h7.58c2.2,0,3.9-.43,5.1-1.28,1.2-.85,1.86-2.13,1.97-3.84.12-1.67-.36-2.93-1.44-3.78Z"/>
        <polygon class="cls-1" points="477.27 126.83 470.24 140.44 482.5 140.44 477.38 126.83 477.27 126.83"/>
        <path class="cls-1" d="m579.75,99.35H11.31c-6.25,0-11.31,5.06-11.31,11.31v49.71c0,6.25,5.06,11.31,11.31,11.31h568.43c6.25,0,11.31-5.06,11.31-11.31v-49.71c0-6.25-5.06-11.31-11.31-11.31ZM58.58,154.45h-26.16l2.52-36.06h26.16l-.43,6.19h-18.09l-.59,8.44h16.84l-.43,6.19h-16.84l-.63,9.05h18.09l-.43,6.19Zm34.87,0l-3-7.82h-17.85l-4.05,7.82h-8.45l20.07-36.06h6.71l15.02,36.06h-8.45Zm21.79-23.12c.7.61,1.97,1.11,3.82,1.48l5.98,1.23c3.52.72,6.11,1.87,7.75,3.45,1.64,1.58,2.37,3.67,2.19,6.26-.15,2.22-.94,4.18-2.36,5.88-1.42,1.71-3.33,3.02-5.72,3.94-2.39.92-5.18,1.38-8.36,1.38-1.99,0-3.91-.15-5.76-.46-1.86-.31-3.54-.76-5.05-1.35-1.51-.6-2.85-1.3-4.02-2.12l2.87-6.19c1.1.72,2.31,1.34,3.61,1.87,1.3.53,2.7.94,4.19,1.23,1.5.29,3.04.44,4.63.44,2.6,0,4.5-.38,5.71-1.13,1.21-.75,1.85-1.7,1.93-2.86.05-.68-.09-1.25-.42-1.71-.33-.46-.88-.86-1.65-1.2-.77-.34-1.8-.63-3.08-.87l-6.03-1.23c-3.42-.72-5.9-1.9-7.44-3.55-1.55-1.65-2.22-3.83-2.04-6.52.16-2.28.95-4.29,2.37-6.01,1.42-1.72,3.33-3.05,5.72-3.99,2.39-.94,5.12-1.41,8.19-1.41,1.73,0,3.4.15,5,.46,1.6.31,3.08.77,4.43,1.38,1.35.61,2.48,1.33,3.4,2.15l-2.85,5.93c-1.37-1.12-2.94-1.96-4.73-2.51-1.79-.54-3.72-.82-5.82-.82-1.52,0-2.82.19-3.91.56-1.09.38-1.93.9-2.52,1.56-.59.66-.91,1.46-.98,2.38-.07.96.25,1.74.95,2.35Zm42.16,6.93l-1.13,16.18h-8.39l1.14-16.25-13.29-19.81h9.75l8.35,12.69,10.22-12.69h9.42l-16.07,19.87Zm49.03,16.7c-4.08,0-7.54-.76-10.37-2.28-2.84-1.52-4.93-3.67-6.29-6.47-1.36-2.8-1.9-6.07-1.64-9.82.26-3.75,1.27-7.01,3.01-9.79,1.75-2.78,4.14-4.93,7.19-6.44,3.05-1.52,6.61-2.28,10.69-2.28,2.53,0,4.94.37,7.23,1.1,2.29.73,4.12,1.75,5.47,3.04l-3.09,6.29c-1.51-1.19-3.06-2.07-4.66-2.63-1.6-.56-3.31-.84-5.11-.84-3.61,0-6.42,1.01-8.42,3.02s-3.13,4.86-3.39,8.54c-.26,3.72.47,6.58,2.19,8.59,1.72,2.01,4.38,3.02,7.99,3.02,1.8,0,3.55-.28,5.23-.84,1.68-.56,3.36-1.44,5.03-2.63l2.21,6.29c-1.53,1.26-3.5,2.27-5.9,3.02-2.4.75-4.86,1.12-7.39,1.12Zm46.5-.51l-3-7.82h-17.85l-4.05,7.82h-8.45l20.07-36.06h6.71l15.02,36.06h-8.45Zm35.69,0l-5.86-11.46c-.28-.65-.65-1.15-1.11-1.51-.46-.36-.98-.61-1.55-.74-.57-.14-1.23-.21-1.99-.21h-4.06l-.97,13.91h-8.39l2.52-36.06h17.44c4.22,0,7.43.97,9.63,2.92,2.19,1.94,3.17,4.65,2.92,8.13-.16,2.25-.82,4.19-1.98,5.83-1.16,1.64-2.77,2.9-4.81,3.79-.75.33-1.58.57-2.44.78.64.17,1.23.42,1.76.76,1.09.68,1.98,1.74,2.68,3.17l5.43,10.69h-9.21Zm52.69,0l-5.86-11.46c-.28-.65-.65-1.15-1.11-1.51-.46-.36-.98-.61-1.55-.74-.57-.14-1.23-.21-1.99-.21h-4.06l-.97,13.91h-8.39l2.52-36.06h17.44c4.22,0,7.43.97,9.62,2.92,2.19,1.94,3.17,4.65,2.92,8.13-.16,2.25-.82,4.19-1.98,5.83-1.16,1.64-2.77,2.9-4.81,3.79-.75.33-1.58.57-2.44.78.64.17,1.23.42,1.76.76,1.09.68,1.98,1.74,2.68,3.17l5.43,10.69h-9.21Zm42-29.87h-18.09l-.59,8.44h16.84l-.43,6.19h-16.84l-.63,9.05h18.09l-.43,6.19h-26.16l2.52-36.06h26.16l-.43,6.19Zm37.66,29.87h-6.23l-17.46-22.99-1.61,22.99h-7.8l2.52-36.06h6.23l17.41,22.88,1.6-22.88h7.85l-2.52,36.06Zm25.18,0h-8.39l2.06-29.51h-12.67l.46-6.55h33.68l-.46,6.55h-12.62l-2.06,29.51Zm41.7,0l-3-7.82h-17.85l-4.06,7.82h-8.45l20.07-36.06h6.71l15.02,36.06h-8.45Zm37.8,0h-26.05l2.52-36.06h8.39l-2.05,29.36h17.65l-.47,6.7Zm14.21-23.12c.7.61,1.97,1.11,3.82,1.48l5.98,1.23c3.52.72,6.11,1.87,7.75,3.45,1.64,1.58,2.37,3.67,2.19,6.26-.16,2.22-.94,4.18-2.36,5.88-1.42,1.71-3.33,3.02-5.72,3.94-2.39.92-5.18,1.38-8.36,1.38-1.99,0-3.91-.15-5.76-.46-1.86-.31-3.54-.76-5.05-1.35-1.51-.6-2.85-1.3-4.02-2.12l2.87-6.19c1.11.72,2.31,1.34,3.61,1.87,1.3.53,2.7.94,4.19,1.23s3.04.44,4.63.44c2.6,0,4.5-.38,5.71-1.13s1.85-1.7,1.93-2.86c.05-.68-.09-1.25-.42-1.71-.33-.46-.88-.86-1.65-1.2-.77-.34-1.8-.63-3.08-.87l-6.03-1.23c-3.42-.72-5.9-1.9-7.44-3.55-1.55-1.65-2.22-3.83-2.04-6.52.16-2.28.95-4.29,2.37-6.01,1.42-1.72,3.33-3.05,5.72-3.99,2.39-.94,5.12-1.41,8.19-1.41,1.73,0,3.4.15,5,.46,1.6.31,3.08.77,4.42,1.38,1.35.61,2.48,1.33,3.4,2.15l-2.85,5.93c-1.37-1.12-2.94-1.96-4.73-2.51-1.79-.54-3.72-.82-5.82-.82-1.52,0-2.82.19-3.91.56-1.09.38-1.93.9-2.52,1.56-.59.66-.92,1.46-.98,2.38-.07.96.25,1.74.95,2.35Z"/>
        <polygon class="cls-1" points="242.36 126.83 235.33 140.44 247.58 140.44 242.46 126.83 242.36 126.83"/>
        <polygon class="cls-1" points="82.88 126.83 75.85 140.44 88.1 140.44 82.98 126.83 82.88 126.83"/>
        <path class="cls-1" d="m496.24,180.26H109.12c-5.73,0-6.84,5.94-1.32,7.06l16.77,3.41c.43.09.88.13,1.32.13h352.9c.43,0,.86-.04,1.27-.12l17.44-3.41c5.56-1.09,4.48-7.07-1.27-7.07Z"/>
      </g>
      <text class="cls-2" transform="translate(595.51 85.62)"><tspan x="0" y="0">TM</tspan></text>
    </g>
  </g>
</svg>