<?xml version="1.0" encoding="UTF-8"?>
<svg id="Layer_2" data-name="Layer 2" xmlns="http://www.w3.org/2000/svg" viewBox="0 0 2279.42 1162.05">
  <defs>
    <style>
      .cls-1 {
        fill: #fff;
      }

      .cls-1, .cls-2, .cls-3, .cls-4 {
        fill-rule: evenodd;
      }

      .cls-3 {
        fill: #bb2534;
      }

      .cls-4 {
        fill: #9894c6;
      }
    </style>
  </defs>
  <g id="Layer_1-2" data-name="Layer 1">
    <g>
      <path class="cls-1" d="M4.9,581.02C4.9,262.83,511.2,4.89,1139.73,4.89s1134.82,257.94,1134.82,576.13-506.3,576.14-1134.82,576.14S4.9,899.22,4.9,581.02h0Z"/>
      <path class="cls-3" d="M1139.72,109.63c641.6,0,1030.06,262.55,1030.06,471.39s-388.46,471.39-1030.06,471.39S109.65,789.87,109.65,581.02c.01-208.84,388.46-471.39,1030.07-471.39h0Z"/>
      <path class="cls-2" d="M1139.72,0c627.91,0,1139.71,257.72,1139.71,581.02s-511.8,581.03-1139.71,581.03S0,904.33,0,581.02C.01,257.72,511.81,0,1139.72,0ZM1139.72,9.78C510.58,9.78,9.78,267.93,9.78,581.02s500.8,571.25,1129.94,571.25,1129.93-258.16,1129.93-571.25S1768.84,9.78,1139.72,9.78h0Z"/>
      <path class="cls-2" d="M2174.68,581.02c0,213.9-393.85,476.28-1034.95,476.28S104.77,794.92,104.77,581.02,498.64,104.74,1139.73,104.74s1034.95,262.38,1034.95,476.28h0ZM2164.9,581.02c0-203.78-383.04-466.5-1025.17-466.5S114.55,377.24,114.55,581.02s383.02,466.5,1025.18,466.5,1025.17-262.72,1025.17-466.5h0Z"/>
      <path class="cls-3" d="M1165.89,57.26c0,14.46-11.72,26.19-26.19,26.19s-26.19-11.72-26.19-26.19,11.72-26.19,26.19-26.19,26.19,11.72,26.19,26.19h0ZM1079.41,57.99c.74,14.45-10.37,26.77-24.82,27.51-14.45.74-26.77-10.37-27.51-24.82-.02-.29-.03-.59-.03-.88-.26-14.47,11.26-26.4,25.73-26.66,14.12-.25,25.91,10.74,26.63,24.85ZM993,62.03c1.01,14.43-9.87,26.95-24.3,27.96-14.43,1.01-26.95-9.87-27.96-24.3s9.87-26.95,24.3-27.96c14.43-1.01,26.95,9.87,27.96,24.3ZM906.78,69.15c2.05,14.32-7.9,27.58-22.21,29.63-14.32,2.05-27.58-7.9-29.63-22.21-.05-.34-.09-.68-.13-1.02-1.48-14.39,8.98-27.25,23.36-28.73,13.99-1.44,26.62,8.42,28.61,22.34ZM821.03,80.39c2.26,14.28-7.48,27.7-21.76,29.96-14.28,2.26-27.7-7.48-29.96-21.76-2.26-14.29,7.48-27.7,21.76-29.97,14.29-2.25,27.7,7.49,29.96,21.78ZM735.77,95.03c3.11,14.13-5.81,28.11-19.94,31.22-14.13,3.11-28.11-5.81-31.22-19.94-.03-.14-.06-.27-.09-.41-2.89-14.18,6.27-28.01,20.44-30.9,14.02-2.85,27.73,6.06,30.81,20.03ZM651.33,113.8c4.01,13.9-4.01,28.42-17.92,32.43-13.9,4.01-28.42-4.01-32.43-17.92-.09-.32-.18-.65-.26-.98-3.47-14.05,5.1-28.25,19.15-31.72,13.67-3.38,27.56,4.65,31.46,18.18ZM568,137.03c4.47,13.75-3.05,28.52-16.8,33-13.75,4.47-28.52-3.05-33-16.8h0c-4.47-13.75,3.05-28.52,16.8-33,13.75-4.47,28.52,3.05,33,16.8ZM486.21,165.14c5.55,13.36-.78,28.69-14.14,34.25-13.36,5.55-28.69-.78-34.25-14.14-.18-.44-.35-.88-.51-1.33-4.82-13.64,2.33-28.61,15.98-33.43,13.12-4.64,27.58,1.8,32.92,14.65ZM406.11,197.81c6.51,12.91,1.32,28.66-11.59,35.17s-28.66,1.32-35.17-11.59c-.1-.21-.21-.42-.31-.63-6.17-13.08-.56-28.69,12.52-34.85,12.84-6.05,28.15-.78,34.54,11.89ZM328.81,236.66c7.61,12.3,3.81,28.45-8.5,36.06-12.3,7.61-28.45,3.81-36.06-8.5-.12-.2-.24-.39-.36-.59-7.29-12.5-3.06-28.54,9.44-35.83,12.27-7.15,28-3.23,35.47,8.85ZM255.54,282.62c8.5,11.69,5.91,28.06-5.78,36.56h-.02c-11.7,8.52-28.09,5.94-36.6-5.77-8.51-11.7-5.92-28.09,5.78-36.6,11.7-8.51,28.09-5.92,36.6,5.78,0,0,.01.01.02.02ZM187.11,335.61c10.22,10.23,10.21,26.8-.01,37.01-10.23,10.22-26.8,10.21-37.01-.01-10.21-10.22-10.21-26.78,0-37,10.22-10.23,26.79-10.23,37.01-.01,0,0,0,0,.01.01ZM127.7,398.5c12.1,7.94,15.47,24.18,7.54,36.28-7.94,12.1-24.18,15.47-36.28,7.54-.44-.29-.87-.59-1.3-.91-11.6-8.65-13.98-25.07-5.33-36.67,8.29-11.1,23.78-13.84,35.37-6.24ZM81.11,471.55c13.68,4.71,20.95,19.62,16.24,33.3-4.71,13.68-19.62,20.95-33.3,16.24h0c-13.68-4.71-20.95-19.62-16.24-33.3,4.71-13.68,19.62-20.95,33.3-16.24ZM1165.94,1104.79c0,14.47-11.74,26.2-26.21,26.19-14.47,0-26.2-11.74-26.19-26.21h0c0-14.47,11.74-26.2,26.21-26.19,14.47,0,26.2,11.74,26.19,26.21ZM1079.43,1104.05c.18,14.47-11.4,26.34-25.87,26.52-14.47.18-26.34-11.4-26.52-25.87-.01-.83.02-1.66.09-2.48,1.19-14.42,13.85-25.15,28.27-23.95,13.46,1.11,23.87,12.28,24.04,25.78ZM993.03,1100c-.89,14.43-13.31,25.42-27.75,24.53-14.43-.89-25.42-13.31-24.53-27.75,0-.15.02-.29.03-.44,1.13-14.42,13.74-25.19,28.15-24.06,14.25,1.12,24.97,13.45,24.09,27.72ZM906.82,1092.9c-1.48,14.39-14.35,24.86-28.74,23.38-14.39-1.48-24.86-14.35-23.38-28.74.04-.35.08-.69.13-1.03,2.05-14.32,15.33-24.27,29.65-22.22,13.92,1.99,23.79,14.62,22.35,28.61ZM821.05,1081.65c-2.05,14.32-15.33,24.27-29.65,22.21-14.32-2.06-24.27-15.33-22.21-29.65.04-.25.07-.5.12-.74,2.46-14.26,16.02-23.82,30.28-21.35,13.97,2.42,23.48,15.5,21.47,29.54ZM735.79,1067.02c-3.01,14.15-16.92,23.18-31.06,20.17-14.15-3.01-23.18-16.92-20.17-31.06s16.92-23.18,31.06-20.17c14.15,3.01,23.18,16.92,20.17,31.06h0ZM651.34,1048.24c-3.37,14.07-17.5,22.75-31.58,19.38s-22.75-17.5-19.38-31.58c.11-.46.23-.91.36-1.36,4.12-13.87,18.7-21.78,32.57-17.66,13.35,3.96,21.26,17.67,18.02,31.21ZM568.01,1025.01c-4.47,13.75-19.24,21.28-32.99,16.82-13.75-4.47-21.28-19.24-16.82-32.99s19.24-21.28,32.99-16.82c13.75,4.47,21.28,19.24,16.82,32.99h0ZM486.21,996.89c-4.82,13.64-19.79,20.8-33.43,15.98-13.64-4.82-20.8-19.79-15.98-33.43.16-.45.33-.89.51-1.33,5.55-13.36,20.88-19.69,34.25-14.14,12.85,5.34,19.29,19.8,14.65,32.92ZM406.11,964.22c-6.34,13-22.01,18.4-35.01,12.07-13-6.34-18.4-22.01-12.07-35.01s22.01-18.4,35.01-12.07c13,6.34,18.4,22.01,12.07,35.01h0ZM328.8,925.39c-7.44,12.4-23.53,16.41-35.94,8.95s-16.42-23.53-8.95-35.94c7.45-12.4,23.54-16.4,35.94-8.95,12.4,7.45,16.4,23.54,8.95,35.94h0ZM255.54,879.41c-8.28,11.87-24.61,14.77-36.48,6.49-11.87-8.28-14.77-24.61-6.49-36.48.19-.27.39-.54.59-.81,8.73-11.54,25.16-13.83,36.7-5.1,11.23,8.49,13.75,24.34,5.69,35.89ZM187.1,826.45c-10,10.45-26.59,10.82-37.04.81-10.45-10-10.82-26.59-.81-37.04.27-.28.54-.56.83-.83,10.46-10,27.04-9.62,37.04.84,9.68,10.13,9.68,26.09-.01,36.22ZM127.66,763.56c-11.85,8.3-28.19,5.42-36.48-6.43-8.3-11.85-5.42-28.19,6.43-36.48h0c11.85-8.3,28.19-5.42,36.48,6.43,8.3,11.85,5.42,28.19-6.43,36.48ZM81.07,690.5c-13.6,4.95-28.63-2.06-33.58-15.66s2.06-28.63,15.66-33.58c.29-.11.59-.21.89-.3,13.77-4.46,28.54,3.09,33,16.85,4.34,13.42-2.71,27.87-15.97,32.69ZM58.2,607.19c-14.45.75-26.77-10.36-27.52-24.81s10.36-26.77,24.81-27.52c.3-.02.6-.03.91-.03,14.47-.25,26.4,11.28,26.64,25.75.24,14.11-10.74,25.88-24.84,26.61ZM2223.11,554.85c14.45.5,25.75,12.62,25.25,27.07-.5,14.45-12.62,25.75-27.07,25.25s-25.75-12.62-25.25-27.07c.5-14.45,12.62-25.75,27.07-25.25h0ZM2215.43,640.97c13.72,4.57,21.15,19.39,16.58,33.11-4.57,13.72-19.39,21.15-33.11,16.58-.17-.06-.34-.12-.51-.18-13.63-4.85-20.74-19.82-15.9-33.45,4.78-13.43,19.41-20.57,32.94-16.07ZM2181.85,720.65c12.1,7.94,15.47,24.18,7.54,36.28-7.94,12.1-24.18,15.47-36.28,7.54-.44-.29-.87-.59-1.3-.91-11.6-8.65-13.98-25.07-5.33-36.67,8.29-11.1,23.78-13.84,35.37-6.24ZM2129.41,789.4c10.23,10.23,10.23,26.8,0,37.03-10.23,10.23-26.8,10.23-37.03,0s-10.23-26.8,0-37.03c10.23-10.23,26.8-10.23,37.03,0ZM2066.3,848.64c8.75,11.51,6.51,27.94-5.01,36.69-11.51,8.75-27.94,6.51-36.69-5.01-.23-.3-.45-.6-.66-.91-8.25-11.88-5.3-28.2,6.58-36.44,11.52-8,27.3-5.5,35.78,5.67ZM1995.55,898.42c7.45,12.39,3.44,28.47-8.95,35.92s-28.47,3.44-35.92-8.95c-7.45-12.39-3.44-28.47,8.95-35.92,0,0,0,0,0,0,12.36-7.45,28.42-3.47,35.88,8.89.01.02.03.04.04.06ZM1920.42,941.25c6.34,13,.94,28.67-12.06,35.01-13,6.34-28.67.94-35.01-12.06-6.16-13.08-.56-28.69,12.52-34.85,12.83-6.05,28.15-.77,34.54,11.89ZM1842.15,978.13c5.78,13.26-.28,28.7-13.54,34.49s-28.7-.28-34.49-13.54c-.31-.72-.59-1.45-.84-2.19-4.57-13.73,2.85-28.56,16.58-33.14,12.86-4.29,26.87,1.95,32.29,14.38ZM1761.27,1008.83c4.48,13.75-3.04,28.53-16.8,33.01s-28.53-3.04-33.01-16.8,3.04-28.53,16.8-33.01c13.75-4.48,28.53,3.04,33.01,16.8h0ZM1678.72,1034.69c3.74,13.97-4.55,28.33-18.52,32.07-13.97,3.74-28.33-4.55-32.07-18.52h0c-3.37-14.07,5.31-28.21,19.38-31.58,13.54-3.24,27.25,4.68,31.21,18.02ZM1594.92,1056.13c3.27,14.09-5.5,28.17-19.6,31.44-14.09,3.27-28.17-5.5-31.44-19.6-.07-.32-.14-.63-.2-.95-2.75-14.21,6.55-27.95,20.75-30.69,13.83-2.67,27.31,6.07,30.49,19.8ZM1510.15,1073.46c2.27,14.28-7.47,27.7-21.75,29.97-14.28,2.27-27.7-7.47-29.97-21.75h0c-2.27-14.28,7.47-27.7,21.75-29.97,14.28-2.27,27.7,7.47,29.97,21.75ZM1424.64,1086.52c1.76,14.35-8.45,27.42-22.8,29.18-14.35,1.76-27.42-8.45-29.18-22.8-1.77-14.35,8.43-27.41,22.77-29.18,0,0,.02,0,.03,0,14.34-1.77,27.4,8.41,29.18,22.75,0,.02,0,.04,0,.05ZM1338.69,1096.33c1.02,14.41-9.83,26.92-24.24,27.95-.02,0-.03,0-.05,0-14.43,1.01-26.94-9.87-27.95-24.29-1.01-14.43,9.87-26.94,24.29-27.95,14.43-1.01,26.94,9.87,27.95,24.29,0,0,0,0,0,0ZM1252.37,1102.22c.73,14.44-10.38,26.75-24.83,27.48-14.44.73-26.75-10.38-27.48-24.83-.01-.27-.02-.53-.03-.8-.29-14.46,11.19-26.42,25.65-26.71,14.15-.29,25.97,10.72,26.68,24.86h0Z"/>
      <path class="cls-3" d="M1113.57,57.26c0-14.47,11.73-26.2,26.2-26.2s26.2,11.73,26.2,26.2-11.73,26.2-26.2,26.2-26.2-11.73-26.2-26.2ZM1200.07,57.99c.29-14.47,12.26-25.96,26.72-25.66s25.96,12.26,25.66,26.72c0,.27-.01.53-.03.79-.73,14.45-13.04,25.57-27.49,24.84-14.14-.72-25.16-12.54-24.87-26.7ZM1286.47,62.03c.89-14.43,13.31-25.42,27.75-24.53s25.42,13.31,24.53,27.75c0,.15-.02.29-.03.44-1.13,14.42-13.73,25.19-28.15,24.06-14.25-1.12-24.97-13.45-24.09-27.72ZM1372.68,69.15c1.76-14.35,14.83-24.56,29.18-22.8,14.35,1.76,24.56,14.83,22.8,29.18s-14.83,24.56-29.18,22.8c-14.35-1.76-24.56-14.83-22.8-29.18ZM1458.45,80.39c2.1-14.32,15.41-24.22,29.73-22.12s24.22,15.41,22.12,29.73c-.03.2-.06.39-.09.59-2.43,14.26-15.96,23.86-30.22,21.44-14.04-2.39-23.6-15.55-21.53-29.63ZM1543.69,95.03c3.3-14.09,17.4-22.83,31.49-19.52,13.67,3.21,22.38,16.61,19.75,30.41-3.3,14.09-17.4,22.83-31.49,19.52-13.67-3.21-22.38-16.61-19.75-30.41ZM1628.15,113.8c4.12-13.87,18.7-21.78,32.57-17.66,13.35,3.96,21.26,17.67,18.02,31.21-4.12,13.87-18.7,21.78-32.57,17.66-13.35-3.96-21.26-17.67-18.02-31.21ZM1711.46,137.03c4.16-13.86,18.77-21.72,32.63-17.55,13.86,4.16,21.72,18.77,17.55,32.63-.11.38-.23.75-.37,1.12-4.78,13.66-19.73,20.85-33.39,16.06-13.22-4.63-20.46-18.85-16.43-32.26ZM1793.26,165.14c5.19-13.51,20.34-20.25,33.84-15.07s20.25,20.34,15.04,33.83c-5.15,13.49-20.27,20.25-33.76,15.09-.02,0-.04-.01-.05-.02-13.49-5.16-20.25-20.28-15.09-33.78,0-.02.01-.03.02-.05ZM1873.35,197.81c6.34-13,22.02-18.4,35.02-12.06,13,6.34,18.4,22.02,12.06,35.02h0c-6.34,13-22.02,18.4-35.02,12.06-13-6.34-18.4-22.02-12.06-35.02ZM1950.67,236.66c7.15-12.57,23.14-16.96,35.71-9.81,12.57,7.15,16.96,23.14,9.8,35.71-.2.35-.41.7-.63,1.05-7.73,12.22-23.91,15.86-36.13,8.13-11.82-7.48-15.68-22.93-8.76-35.08ZM2023.93,282.62c8.5-11.7,24.87-14.29,36.57-5.79s14.29,24.87,5.79,36.57-24.87,14.29-36.57,5.79-14.29-24.87-5.79-36.57ZM2092.35,335.61c10.23-10.22,26.8-10.21,37.01.01,10.22,10.23,10.21,26.8-.01,37.01-10.22,10.21-26.78,10.21-37,0-10.23-10.22-10.23-26.79-.01-37.01,0,0,0,0,.01-.01ZM2151.77,398.5c11.85-8.29,28.18-5.41,36.47,6.43s5.41,28.18-6.43,36.47h0c-11.85,8.29-28.18,5.41-36.47-6.43s-5.41-28.18,6.43-36.47ZM2198.36,471.55c13.67-4.71,28.57,2.56,33.28,16.24,4.71,13.67-2.56,28.57-16.24,33.28h0c-13.67,4.71-28.57-2.56-33.28-16.24-4.71-13.67,2.56-28.57,16.24-33.28Z"/>
      <path class="cls-1" d="M299.5,763.49h113.14c47.29,0,80.57-50.47,80.57-91.99s-18.66-63.2-40.17-74.91l-8.55-4.66,8.31-5.07c19.31-11.76,31.79-44.11,31.79-66.2,0-27.95-16.81-66.61-54.5-79.08l1.36-3.86c9.84,3.28,17.83,7.91,23.86,12.19,6.3,4.47,10.48,8.56,12.4,10.3,4.84,4.4,13.13,12,20.62,20.48,6.51,7.37,11.87,14.27,15.6,19.79,11.1,16.47,16.29,35.77,16.29,51.49,0,21.91-11.69,54.08-31.15,68.05l-1.3.92,14.79,14.79c15.19,14.2,26.29,36.03,26.29,67.08,0,42.92-34.32,96.24-84.84,96.24h-120.1l-30.03-29.95,5.6-5.6h0ZM390.95,721.48h-35.64v-108.83h40.09c17.51,0,32.05,15.99,37.65,36.42-2.04-.56-4.15-.84-6.26-.84h-35.84v73.25h0ZM390.95,570.48c-1.38.12-2.77.17-4.16.17h-31.46v-91.09h31.46c18.91,0,35.98,12.78,39.45,36.46-2.65-.6-5.35-.9-8.07-.89h-27.21v55.35h-.01ZM667.71,771.53c52.8,0,97.82-43.85,97.82-97.22v-234.84l5.62-5.62,30.03,29.95v241.81c0,55.78-46.98,101.49-102.07,101.49-23.76,0-48.55-9.86-73.18-28.25-17.39-13-34.62-35.37-37.3-41.04-.99-2.06-5.14-8.96-9.66-18.2l2.18-.6c16.59,31.09,49.66,52.51,86.57,52.51h0ZM633.24,433.85l30.02,29.95v241.81c0,2.67.29,5.28.84,7.79-21.69-1.71-36.48-18.92-36.48-39.09v-234.84s5.62-5.62,5.62-5.62h0ZM867.16,735.53c-1.05-2.22-5.47-9.51-10.08-19.22l2.28-.74c16.11,32.94,50.58,55.99,88.88,55.99,66.72,0,97.13-38.68,97.13-97.25v-75.13l5.62-5.62,30.03,29.95v82.1c0,60.66-32.07,101.48-101.4,101.48-25.1,0-49.04-9.7-73.85-28.24-18.18-13.57-35.91-37.63-38.61-43.32ZM987.75,674.79l-30.03-29.95,5.62-5.63h32.93v35.56h-8.52ZM907.47,674.34v-147.6c0-23.35,16.52-43.28,40.27-45.38,26.16-2.3,45.01,14.68,48.08,38.44-4.85-1.88-10.35-3.42-16.33-2.89-21.36,1.88-36.39,20.08-36.39,41.13v147.6c0,3.97.66,7.9,1.89,11.65-22.13-3.32-37.52-22.74-37.52-42.94h0ZM1022.7,449.1c8.5,6.54,17.5,13.99,26.73,24.77,8.43,9.84,14.58,19.48,18.87,27.38,8.51,15.67,12.71,34.91,12.71,56.78v5.63h-58.42l-30.03-29.95,5.62-5.63h47.18v-1.35c0-44.91-17.89-78.31-56.73-91.31l.97-4.11c13.28,4.38,23.8,10.74,33.09,17.78h0ZM1236.47,653.47h-42.84l35.32-156.21c2.2-9.58,9.14-9.31,11,.12l15.04,74.19-18.52,81.9h0ZM1291.24,769.11l5.63-5.62h56.39l-74.6-324.24,4.2-5.28,30.04,29.96,79.87,335.11h-71.52l-30.01-29.93h0ZM1217.6,736.94l-14.03,62.1h-69.88l-29.9-29.82,7.41-5.73h57.56l14.06-62.11h98.49l7.22,35.56h-70.93ZM1445.3,769.74l5.63-5.62h55.81v-275.7h68.95v-48.96l5.6-5.62,30.04,29.95v60.19h-68.95v275.7h-67.05l-30.03-29.95h0ZM1406.38,523.99l-30.01-29.95,5.63-5.62h67.03v35.56h-42.64,0ZM1658.7,523.99l-30.01-29.95,5.63-5.62h67.03v35.56h-42.64ZM1833.61,433.85l30.01,29.95v60.19h-68.95v275.7h-67.03l-30.01-29.96,5.63-5.62h55.78v-275.69h68.95v-48.96l5.62-5.62h0ZM1955.66,433.85l30.03,29.95v335.24h-67.03l-30.03-29.93,5.6-5.62h55.8v-324.02l5.63-5.62h0Z"/>
      <path class="cls-4" d="M490.98,520.67c0-17.72-6.41-39.88-20.3-57.73,4.86,4.49,11.52,10.83,17.64,17.76,6.51,7.37,11.87,14.27,15.6,19.79,11.1,16.47,16.29,35.77,16.29,51.49,0,21.91-11.69,54.08-31.15,68.05l-1.3.92,14.79,14.79c15.19,14.2,26.29,36.03,26.29,67.08,0,42.92-34.32,96.24-84.84,96.24h-120.1l-29.23-29.16h117.96c52.13,0,86.98-54.77,86.98-98.39,0-41.3-19.31-66.86-42.35-79.89,21.23-13.85,33.72-47.99,33.72-70.94h0ZM390.95,715.09h-29.23v-96.03h33.68c12.84,0,25.3,12.05,30.78,29.17h-35.23v66.86ZM386.77,485.96c15.02,0,29.23,9.65,32.83,29.18l-1.44-.03h-27.21v48.92c-1.35.13-2.74.21-4.16.21h-25.07v-78.29h25.06ZM663.26,705.61l.03,1.28c-17.59-2.02-29.26-16.13-29.26-32.58v-239.67s29.23,29.17,29.23,29.17v241.8h0ZM597.08,749.95c18.77,17.34,43.76,27.99,70.63,27.99,56.26,0,104.21-46.65,104.21-103.63v-239.67l29.23,29.17v241.81c0,55.78-46.98,101.49-102.07,101.49-23.76,0-48.55-9.86-73.18-28.25-10.83-8.09-21.61-19.83-28.83-28.91h0ZM876.91,749.61c18.96,17.56,44.27,28.36,71.33,28.36,70.63,0,103.52-41.94,103.52-103.65v-79.96l29.25,29.16v82.1c0,60.66-32.07,101.48-101.4,101.48-25.1,0-49.04-9.7-73.85-28.24-10.8-8.07-21.44-19.83-28.86-29.25ZM958.52,645.63h31.35v29.16h-2.11l-29.23-29.16ZM948.31,487.75c21.34-1.88,36.94,10.91,40.7,29.92-3.11-.75-6.31-1-9.49-.75-21.36,1.88-36.39,20.08-36.39,41.13v147.6c0,1.63.1,3.24.32,4.85-17.57-3.88-29.57-19.79-29.57-36.15v-147.6c0-20.32,14.27-37.24,34.43-39ZM993.37,534.51h58.4v-7.77c0-30.26-7.91-55.77-24.31-73.9,7.07,5.67,14.45,12.24,21.97,21.04,8.43,9.84,14.58,19.48,18.87,27.38,8.51,15.67,12.71,34.91,12.71,56.78v5.63h-58.42l-29.23-29.16h0ZM1237.91,647.06h-36.25l32.72-144.82,17.16,84.55-13.63,60.27ZM1292.02,769.89h69.28l-76.94-334.43,28.52,28.46,79.87,335.11h-71.52l-29.22-29.14h0ZM1104.45,769.89h69.43l14.06-62.1h88.16l5.9,29.16h-64.39l-14.03,62.1h-69.88l-29.23-29.16ZM1446.09,770.53h67.05v-275.7h68.95v-60.21l29.23,29.17v60.19h-68.95v275.7h-67.05l-29.23-29.16ZM1377.17,494.84h65.43v29.16h-36.22l-29.21-29.16ZM1629.47,494.84h65.46v29.16h-36.22l-29.23-29.16ZM1698.42,770.53h67.03v-275.7h68.95v-60.21l29.23,29.17v60.19h-68.95v275.7h-67.03l-29.23-29.16ZM1889.42,769.89h67.03v-335.24l29.23,29.16v335.24h-67.03l-29.23-29.16Z"/>
      <path class="cls-2" d="M291.96,769.11l6.98-6.96h113.69c46.28,0,79.22-49.54,79.22-90.63s-18.39-62.25-39.45-73.73l-10.62-5.78,10.32-6.28c18.75-11.44,31.13-43.23,31.13-65.04,0-27.87-16.99-66.46-54.89-78.21l2.27-6.43c21.15,6.71,34.12,19.66,38.01,23.19,4.84,4.4,13.18,12.05,20.73,20.57,6.55,7.42,11.95,14.36,15.71,19.95,11.27,16.69,16.52,36.25,16.52,52.24,0,22.19-11.79,54.85-31.72,69.14l13.64,13.66c15.47,14.46,26.69,36.65,26.69,68.04,0,43.36-34.66,97.6-86.18,97.6h-120.66l-31.39-31.31h0ZM392.3,649.56v73.28h-38.35v-111.57h41.45c19.1,0,34.41,18.04,39.57,39.82-2.61-1-5.39-1.53-8.18-1.54h-34.49ZM392.3,516.48v55.24c-1.84.2-3.68.29-5.53.29h-32.83v-93.8h32.83c20.13,0,38.18,14.05,41.06,39.64-3.14-.91-6.4-1.37-9.68-1.36h-25.86ZM581.84,717.44c16.19,31.19,49.12,52.75,85.87,52.75,52.07,0,96.46-43.27,96.46-95.87v-235.4l6.98-6.96,31.37,31.3v242.38c0,56.54-47.59,102.85-103.43,102.85-24.14,0-49.19-10.01-73.99-28.51-17.54-13.1-34.9-35.63-37.7-41.54-1.04-2.18-5.58-9.7-10.38-19.66l4.82-1.32ZM626.26,438.91l6.98-6.96,31.37,31.3v242.38c.01,3.19.44,6.3,1.26,9.26-23.42-.91-39.61-19.13-39.61-40.56v-235.41h0ZM1256.36,571.56l-18.79,83.25h-45.63l35.69-157.87c2.56-11.08,11.53-10.64,13.63.16l15.1,74.46h0ZM1320.7,800.42l-31.39-31.31,6.99-6.96h55.25l-74.34-323.23,5.55-6.96,31.39,31.3,80.35,337.17h-73.8ZM1290.18,738.3h-71.49l-14.06,62.11h-71.5l-31.39-31.31,8.98-6.96h56.98l14.03-62.11h100.7l7.76,38.27h0ZM1474.77,801.05l-31.39-31.31,6.99-6.96h54.99v-275.7h68.95v-48.17l6.96-6.96,31.39,31.3v62.11h-68.95v275.7h-68.95ZM1450.37,525.35h-44.56l-31.39-31.31,6.99-6.98h68.95v38.29h.01,0ZM1702.67,525.35h-44.54l-31.39-31.31,6.96-6.98h68.95v38.29h.01ZM1826.65,438.91l6.96-6.96,31.39,31.3v62.11h-68.95v275.7h-68.95l-31.39-31.31,6.96-6.96h55.02v-275.7h68.95v-48.17h0ZM1948.69,438.91l6.96-6.96,31.39,31.3v337.17h-68.95l-31.39-31.31,6.96-6.96h55.02v-323.23h0ZM904.97,779.95c-18.35-13.71-36.22-37.92-39.03-43.84-1.09-2.32-5.91-10.22-10.73-20.63l4.86-1.56c15.67,33.07,50.01,56.29,88.17,56.29,65.89,0,95.77-37.99,95.77-95.9v-75.69l6.98-6.98,31.37,31.31v82.66c0,61.33-32.58,102.85-102.75,102.85-25.47,0-49.69-9.87-74.65-28.51ZM997.63,676.15h-10.45l-31.37-31.3,6.96-6.96h34.85v38.26s.01,0,.01,0ZM947.04,718.91c-24.02-2.43-40.93-23.03-40.93-44.58v-147.6c0-23.98,17-44.58,41.52-46.72,27.76-2.44,47.56,16.28,49.79,41.88-5.3-2.19-11.3-4.2-17.81-3.63-20.61,1.82-35.15,19.36-35.15,39.78v147.6c.01,4.54.91,9.04,2.58,13.27h0ZM988.63,429.58c14.12,4.45,25.2,11.09,34.9,18.44,8.53,6.56,17.63,14.09,26.94,24.97,7.29,8.52,13.67,17.77,19.04,27.61,8.64,15.93,12.87,35.39,12.87,57.44v6.98h-60.34l-31.37-31.3,6.98-6.99h46.39c0-44.98-18.04-77.94-56.98-90.4l1.57-6.76h0Z"/>
      <path class="cls-1" d="M360.92,618.27v97.6h34.47c21.87,0,34.47-24.05,34.47-48.81,0-26.63-16.63-48.81-34.47-48.81h-34.47ZM360.92,485.17v79.85h25.86c21.87,0,34.47-15.16,34.47-39.93,0-26.61-16.63-39.93-34.47-39.93h-25.86ZM455.73,591.64c23.28,12.7,43.1,38.14,43.1,79.85s-34.66,97.6-86.2,97.6h-120.67v-337.15h112.05c60.34,0,86.18,53.23,86.18,88.73,0,23.2-12.88,57.83-34.46,70.97h0ZM702.18,674.31v-242.37h68.95v242.38c0,56.54-47.59,102.84-103.43,102.84s-103.43-46.29-103.43-102.84v-242.38h68.95v242.38c.01,18.21,13.99,33.62,34.47,33.62s34.5-15.41,34.5-33.63h0ZM990.66,674.31v-29.45h-34.84v-53.23h95.17v82.68c0,61.32-32.59,102.88-102.75,102.88-55.83,0-104.11-46.33-104.11-102.88v-147.57c0-56.54,48.27-102.84,104.11-102.84,70.15,0,102.75,41.52,102.75,102.84v6.99h-60.34v-6.99c0-24.28-17.34-41.98-42.41-39.78-20.61,1.82-35.16,19.09-35.16,39.78v147.6c0,18.21,14.55,35.87,35.16,37.68,25.06,2.2,42.41-13.42,42.41-37.7ZM1264.72,647.84l-30.3-149.36-33.75,149.36h64.04,0ZM1101.74,769.11l86.2-337.16h94.82l77.56,337.16h-71.01l-12.59-62.11h-89.43l-14.06,62.11h-71.49ZM1512.33,769.74h-68.95v-275.7h-68.95v-62.1h206.85v62.1h-68.96v275.7h0ZM1764.65,769.74h-68.95v-275.7h-68.95v-62.1h206.85v62.1h-68.96v275.7h0ZM1886.71,431.95h68.95v337.16h-68.95v-337.16Z"/>
      <path class="cls-4" d="M1159.08,282.35v56.64h56.03c17.68,0,28.33-12.74,28.33-28.31s-10.64-28.33-28.33-28.33h-56.03ZM1159.08,194.53v50.47h56.03c15.65,0,25.25-11.35,25.25-25.24s-9.6-25.23-25.25-25.23h-56.03ZM1050.88,283.7v-52.05h31.17v13.35h35.07v-50.47h-84.21v16.95h-31.18v-48.13h213.39c32.86,0,59.5,26.62,59.51,59.48,0,14.43-5.24,28.37-14.75,39.22l-.8.93.86.89c24.13,24.74,23.64,64.36-1.1,88.49-11.69,11.4-27.38,17.78-43.71,17.78h-213.39v-48.13h31.18v16.95h84.21v-56.63h-35.07v13.36h-31.17v-12.01h0Z"/>
      <path class="cls-2" d="M1215.11,337.62c16.87,0,26.98-12.06,26.98-26.95s-10.1-26.96-26.98-26.96h-54.69v53.92h54.69ZM1215.11,243.65c14.85,0,23.89-10.7,23.89-23.89s-9.04-23.88-23.89-23.88h-54.69v47.77h54.69ZM1083.4,283.7v13.35h-33.88v-66.76h33.88v13.36h32.36v-47.77h-81.5v16.95h-33.89v-50.84h214.75c33.62.02,60.85,27.28,60.84,60.9,0,14.74-5.36,28.97-15.07,40.06,24.64,25.3,24.11,65.78-1.19,90.42-11.93,11.63-27.94,18.13-44.6,18.14h-214.74v-50.84h33.89v16.95h81.5v-53.92h-32.36,0Z"/>
    </g>
  </g>
</svg>