<?xml version="1.0" encoding="UTF-8"?>
<svg id="Layer_2" data-name="Layer 2" xmlns="http://www.w3.org/2000/svg" viewBox="0 0 1808.82 1658.76">
  <defs>
    <style>
      .cls-1 {
        fill: #e6e6e7;
      }

      .cls-1, .cls-2, .cls-3, .cls-4, .cls-5, .cls-6, .cls-7, .cls-8, .cls-9, .cls-10, .cls-11, .cls-12, .cls-13 {
        fill-rule: evenodd;
      }

      .cls-2 {
        fill: #d4a950;
      }

      .cls-3 {
        fill: #d0d1d3;
      }

      .cls-4 {
        fill: #808183;
      }

      .cls-5 {
        fill: #59595b;
      }

      .cls-6 {
        fill: #a6a8aa;
      }

      .cls-7 {
        fill: #929496;
      }

      .cls-9 {
        fill: #3a529a;
      }

      .cls-10 {
        fill: #434244;
      }

      .cls-11 {
        fill: #bbbcbf;
      }

      .cls-12 {
        fill: #6d6e70;
      }

      .cls-13 {
        fill: #c03b35;
      }
    </style>
  </defs>
  <g id="Layer_1-2" data-name="Layer 1">
    <path class="cls-5" d="M904.77,1490.95h10.08c203.23-19.11,389.7-94.37,541.55-238.78,133.97-127.41,224.25-300.65,226.09-497.78,2.85-308.64-182.85-597.5-583.14-714.6l29.27-24.42,4.38,1.29,11.49,3.39,12.04,3.68,12.37,3.96,12.77,4.25,13.1,4.57,13.31,4.89,13.88,5.24,14.03,5.58,14.37,5.95,14.61,6.33,14.74,6.73,15.14,7.13,15.11,7.54,15.53,7.99,15.44,8.42,15.49,8.89,15.7,9.35,15.69,9.85,15.86,10.33,15.84,10.86,15.63,11.38,5.67,4.22,5.65,4.29,5.84,4.35,5.61,4.44,5.67,4.49,5.67,4.55,5.51,4.64,5.6,4.69,5.67,4.78,5.67,4.84,5.6,4.94,5.51,4.99,5.48,5.08,5.65,5.15,5.44,5.24,5.5,5.31,5.5,5.4,5.4,5.47,5.52,5.57,5.3,5.64,5.44,5.72,5.28,5.81,5.31,5.9,5.25,5.97,5.27,6.08,5.08,6.15,5.12,6.25,5.12,6.34,5.07,6.44,5.12,6.53,4.91,6.61,4.92,6.71,7.46,10.48,7.46,10.66,7.16,10.85,7.1,11.03,6.93,11.25,6.71,11.42,6.58,11.62,6.37,11.82,6.21,12.05,6.03,12.25,5.78,12.47,5.65,12.68,5.31,12.91,5.1,13.12,4.94,13.35,4.68,13.58,4.45,13.83,4.16,14.05,3.99,14.31,3.64,14.56,3.26,14.8,3.11,15.06,2.76,15.3,2.55,15.56,2.2,15.83,1.79,16.1,1.66,16.37,1.07,16.63.9,16.92.6,17.19.14,17.47-.14,17.76-.2,9.12-.4,8.96-.36,8.82-.34,8.67-.56,8.54-.72,8.42-.72,8.3-.74,8.17-.9,8.09-.92,7.97-1.13,7.87-1.04,7.77-1.27,7.71-1.32,7.61-1.42,7.56-1.5,7.47-1.43,7.44-1.67,7.38-1.57,7.33-1.86,7.28-1.79,7.26-2.03,7.21-1.99,7.21-2.02,7.17-2.22,7.17-2.13,7.18-2.38,7.17-2.39,7.17-2.38,7.2-2.49,7.21-2.59,7.24-2.72,7.27-7.3,18.69-7.69,18.43-8.37,18.19-8.76,17.93-9.1,17.69-9.66,17.42-10.22,17.16-10.53,16.89-10.92,16.62-11.49,16.33-11.88,16.06-12.17,15.76-12.58,15.47-13.11,15.16-13.3,14.87-13.73,14.56-14.01,14.24-14.37,13.93-14.78,13.6-14.97,13.25-15.26,12.94-15.5,12.59-15.84,12.24-16.04,11.89-16.39,11.56-16.6,11.18-16.73,10.82-17.12,10.45-17.16,10.08-17.49,9.7-17.53,9.32-17.83,8.92-13.47,6.54-13.63,6.28-13.73,6.05-13.67,5.8-13.64,5.57-13.84,5.34-13.71,5.08-13.67,4.87-13.65,4.62-13.63,4.41-13.67,4.16-13.71,3.92-13.47,3.71-13.48,3.48-13.47,3.26-13.28,3.02-13.32,2.81-13.28,2.58-13.12,2.36-13.12,2.13-12.94,1.93-12.75,1.69-12.75,1.49-12.64,1.35-12.61,1.07-12.21.84-12.25.63-4.95.19v-83.95h0Z"/>
    <path class="cls-4" d="M680.23,15.37l29.25,24.42C309.2,156.89,123.49,445.75,126.34,754.38c1.82,197.13,92.11,370.38,226.09,497.78,151.85,144.41,338.31,219.67,541.55,238.78h10.08v83.94l-4.95-.19-12.25-.63-12.21-.84-12.61-1.07-12.57-1.26-12.75-1.49-12.75-1.69-12.94-1.93-13.12-2.13-13.12-2.36-13.27-2.58-13.32-2.81-13.3-3.02-13.47-3.26-13.48-3.48-13.47-3.71-13.71-3.92-13.67-4.16-13.64-4.41-13.64-4.62-13.67-4.87-13.71-5.08-13.84-5.34-13.64-5.57-13.67-5.8-13.73-6.05-13.64-6.28-13.47-6.54-17.85-8.92-17.52-9.32-17.47-9.7-17.16-10.08-17.12-10.45-16.73-10.82-16.62-11.18-16.37-11.56-16.06-11.89-15.84-12.24-15.5-12.59-15.27-12.94-14.97-13.25-14.78-13.6-14.37-13.93-14.01-14.24-13.71-14.56-13.3-14.87-13.11-15.16-12.57-15.47-12.17-15.76-11.89-16.06-11.48-16.33-10.92-16.62-10.55-16.89-10.2-17.16-9.66-17.42-9.12-17.69-8.76-17.93-8.37-18.19-7.69-18.43-7.28-18.69-2.73-7.27-2.58-7.24-2.49-7.24-2.39-7.2-2.39-7.17-2.38-7.17-2.13-7.18-2.23-7.17-2-7.17-1.98-7.21-2.03-7.21-1.79-7.28-1.86-7.28-1.57-7.33-1.69-7.38-1.42-7.44-1.5-7.47-1.42-7.56-1.32-7.61-1.26-7.71-1.06-7.77-1.12-7.87-.92-7.97-.9-8.09-.77-8.17-.72-8.3-.72-8.42-.56-8.54-.34-8.67-.36-8.82-.4-8.96-.2-9.12-.16-17.76.16-17.47.6-17.19.9-16.92,1.09-16.63,1.66-16.37,1.79-16.1,2.2-15.83,2.53-15.56,2.78-15.3,3.11-15.06,3.26-14.8,3.64-14.56,3.99-14.31,4.16-14.05,4.45-13.83,4.68-13.58,4.94-13.35,5.08-13.12,5.31-12.91,5.67-12.68,5.78-12.47,6.03-12.25,6.2-12.05,6.37-11.81,6.58-11.62,6.7-11.42,6.93-11.25,7.11-11.03,7.16-10.85,7.44-10.66,7.46-10.48,4.92-6.71,4.89-6.61,5.12-6.53,5.07-6.44,5.12-6.34,5.12-6.25,5.08-6.15,5.28-6.08,5.27-5.97,5.31-5.9,5.28-5.81,5.42-5.72,5.31-5.64,5.51-5.57,5.4-5.47,5.51-5.4,5.48-5.31,5.44-5.24,5.65-5.15,5.47-5.08,5.51-4.99,5.61-4.94,5.67-4.84,5.67-4.78,5.6-4.69,5.5-4.64,5.67-4.55,5.67-4.49,5.6-4.44,5.84-4.35,5.67-4.29,5.67-4.22,15.61-11.38,15.86-10.86,15.86-10.33,15.69-9.85,15.7-9.36,15.49-8.89,15.44-8.42,15.53-7.99,15.11-7.54,15.14-7.13,14.74-6.73,14.61-6.33,14.37-5.95,14.04-5.58,13.88-5.24,13.31-4.89,13.1-4.57,12.75-4.25,12.38-3.96,12.04-3.68,11.49-3.39,4.35-1.3h0Z"/>
    <path class="cls-7" d="M904.77,1576.08h.62c110.17-4.14,239.55-34.48,363.54-95.19,190.56-93.31,354.38-253.77,428.93-454.59,28.97-77.93,45.55-149.27,47.42-247.41,3.79-191.31-55.07-333.05-135.78-444.03-52.68-72.23-113.16-128.15-173.65-172.86-112.08-82.94-227.07-124.86-306.13-147.54l.43-.36L1173.79,0c.44-.14,226.69,47.63,407.96,224.28,132.29,128.92,241.54,333.65,225.5,614-13.67,239.08-145.91,474.87-360.55,632.42-143.71,105.48-323.91,176.39-531.79,188.06h-10.13v-82.68h-.01,0Z"/>
    <path class="cls-11" d="M635.03,0l43.65,14.08.43.36c-79.04,22.68-194.04,64.62-306.13,147.54-60.47,44.71-120.96,100.63-173.65,172.86-80.71,110.97-139.56,252.72-135.76,444.03,1.86,98.14,18.45,169.48,47.42,247.41,74.55,200.83,238.34,361.32,428.93,454.59,123.98,60.75,253.36,91.05,363.54,95.19h.62v82.68h-10.13c-207.88-11.65-388.1-82.58-531.79-188.06C147.49,1313.15,15.25,1077.36,1.57,838.28-14.46,557.94,94.79,353.19,227.07,224.28,408.36,47.63,634.58-.14,635.03,0Z"/>
    <path class="cls-6" d="M940.27,1280.55l7.6-2.19,8.07-2.32,8.57-2.43,9.07-2.58,9.5-2.71,9.93-2.82,10.32-2.95,10.65-3.06,10.98-3.15,11.25-3.26,11.51-3.36,11.71-3.43,11.91-3.52,12.05-3.59,12.18-3.68,12.25-3.74,12.29-3.79,12.34-3.85,12.31-3.89,12.28-3.96,12.19-3.98,12.09-4.02,11.95-4.05,11.78-4.09,11.56-4.09,11.34-4.12,11.09-4.11,10.81-4.15,10.45-4.14,10.1-4.14,9.75-4.15,9.29-4.14,4.99-2.29,4.84-2.32,4.68-2.33,4.54-2.35,4.39-2.36,4.25-2.38,4.06-2.38,3.94-2.38,3.75-2.4,3.61-2.39,3.45-2.43,3.28-2.43,3.12-2.45,2.98-2.5,2.79-2.55,2.56-2.52,3.09-3.29,2.93-3.28,2.81-3.32,2.71-3.39,2.6-3.45,2.5-3.54,2.39-3.61,2.29-3.69,2.16-3.76,2.08-3.84,1.96-3.92,1.85-4.01,1.75-4.08,1.65-4.18,1.52-4.24,1.46-4.34,1.35-4.45,1.25-4.51,1.16-4.59,1.1-4.74,1-4.82.93-4.94.87-5.05.82-5.18.73-5.32.69-5.44.62-5.58.59-5.74.53-5.9.49-6.07.44-6.21.42-6.37,18.68-310.81,103.36-175.65-617-69.16-616.99,69.16,103.36,175.65,18.66,310.81.4,6.37.46,6.21.49,6.07.53,5.9.57,5.74.63,5.58.69,5.44.74,5.32.8,5.18.86,5.05.94,4.94,1,4.84,1.1,4.74,1.16,4.58,1.26,4.51,1.35,4.45,1.45,4.35,1.53,4.24,1.65,4.16,1.73,4.08,1.86,4.01,1.95,3.92,2.08,3.84,2.16,3.76,2.29,3.69,2.4,3.62,2.49,3.52,2.6,3.46,2.72,3.38,2.81,3.32,2.93,3.28,3.09,3.29,2.56,2.52,2.81,2.55,2.96,2.5,3.12,2.45,3.28,2.43,3.45,2.43,3.61,2.39,3.76,2.4,3.92,2.38,4.06,2.38,4.25,2.38,4.39,2.36,4.54,2.35,4.69,2.33,4.84,2.32,4.98,2.29,9.29,4.14,9.73,4.15,10.12,4.14,10.45,4.14,10.79,4.15,11.09,4.11,11.34,4.12,11.58,4.09,11.78,4.09,11.95,4.05,12.08,4.02,12.19,3.98,12.28,3.96,12.32,3.89,12.32,3.85,12.29,3.79,12.27,3.74,12.17,3.68,12.05,3.59,11.91,3.52,11.72,3.43,11.49,3.36,11.26,3.26,10.96,3.15,10.65,3.06,10.33,2.95,9.92,2.82,9.52,2.71,9.07,2.58,8.57,2.43,8.06,2.32,7.61,2.19,35.85,10.03,35.87-10.03h0Z"/>
    <path class="cls-11" d="M707.49,40.39l5.81,4.87C320.85,160.57,138.77,444.99,141.59,748.89c1.79,194.11,90.29,364.7,221.65,490.16,148.87,142.19,331.69,216.28,530.95,235.12h20.45c199.25-18.82,382.06-92.93,530.95-235.12,131.36-125.46,219.86-296.04,221.65-490.16,2.81-303.9-179.27-588.32-571.72-703.63l5.82-4.87c398.89,117.47,584,405.87,581.14,714-1.83,197.13-92.11,370.38-226.09,497.78-151.85,144.41-338.32,219.67-541.55,238.78h-20.87c-203.24-19.11-389.7-94.37-541.55-238.78-133.97-127.41-224.25-300.65-226.07-497.78-2.85-308.12,182.25-596.52,581.14-714h0Z"/>
    <path class="cls-1" d="M171.02,1278.42c101.06,23.31,141.49,45.63,207.07,105.32.23.23-135.85,8.03-207.07-105.32ZM170.63,1162.03c-14.2-6.6-119.95-45.15-146.14-190.98,26.65,27.71,53.18,42.33,83.71,81.61,18.92,24.36,39.42,59.37,62.43,109.37h0ZM56.92,817.51c-8.13-12.88-73.42-100.83-28.05-241.1,31.62,69.91,34.05,148.23,28.05,241.1ZM118.22,459.21c-.89-13.54-22.31-99.41,80.5-200.47-7.4,82.05-38.5,129.28-80.5,200.47ZM294.78,218.7c4.57-11.64,11.48-80.93,143.18-141.09-38.08,69.17-83.02,91.05-143.18,141.09h0Z"/>
    <path class="cls-10" d="M448.16,114.65c-.17,0,116.18-77.73,211.07-63.22-30.44,16.12-139.24,60.35-211.07,63.22Z"/>
    <path class="cls-8" d="M82.61,600.39c19.74-21.35,70.4-53.03,120.01-185.68-108.1,79.98-102.7,119.29-120.01,185.68h0ZM195.99,344.68c20.64-10.48,96.38-41.85,154.67-119.78-98.44,26.73-121.85,74.11-154.67,119.78Z"/>
    <path class="cls-1" d="M103.58,1000.44c9.62-28.08,37.47-76.17,16.67-241.23-58.82,117.7-35.26,176.14-16.67,241.23ZM241.03,1244.51c.43-27.92,11.65-79.42-57.12-218.44-18.88,123.03,20.41,166.99,57.12,218.44ZM468.61,1438.88c-9.78-26.96-21.25-102.69-133.02-194.31,23.1,123.47,79.92,154.94,133.02,194.31ZM759.06,1554.51c-9.67-14.01-59.41-103.7-201.38-152.88,64.03,97.79,130.04,133.83,201.38,152.88ZM636.09,1526.23c-14.67-7.59-119.59-64.15-247.95-39.36,76.51,54.67,159.62,50.52,247.95,39.36ZM894.26,1582.1c-16.86-3.51-144.85-37.17-263.23,24.89,116.5,34.26,176.15,8.8,263.23-24.89Z"/>
    <path class="cls-8" d="M894.26,1582.1c-16.86-3.51-144.79-37.15-263.15,24.85,67.88-.33,220.88-16.7,262.98-24.77.06-.02.12-.04.17-.07ZM636.07,1526.23c-14.7-7.61-119.61-64.15-247.94-39.36l.04.03c30.57,7.89,77.99,17.36,123.43,25.83,13.47,2.5,91.08,11.05,124.47,13.5ZM171.02,1278.42c101.04,23.31,141.47,45.63,207.02,105.29-111.86-36.9-187.29-83.85-207.02-105.29ZM24.61,971.17c26.62,27.62,53.1,42.26,83.58,81.48,17.8,22.91,37,55.23,58.35,100.58-67.09-63.55-99.9-96.73-141.93-182.06ZM241.03,1244.47c.44-27.94,11.61-79.43-57.09-218.31,1.03,23.07,6.18,63.49,20.04,113.98,8.67,31.49,21.38,64.92,37.05,104.33ZM103.58,1000.41c9.62-28.08,37.44-76.18,16.67-241.1-6.37,18.59-16.14,64.13-19.19,128.03-1.59,33.23,0,69.81,2.52,113.06ZM468.61,1438.88c-9.78-26.96-21.25-102.69-133-194.31,6.84,19.26,25.79,59.37,60.18,107.5,19.31,27.02,43.71,54.51,72.82,86.82t0,0h0ZM28.89,576.46c30.58,67.65,33.83,143.16,28.58,232.14-17.37-74.47-31.76-159.51-28.58-232.14Z"/>
    <path class="cls-1" d="M82.61,600.39c19.74-21.35,70.39-53.03,119.99-185.64-71.55,70.64-88.49,115.48-116.57,171.71-1.06,4.52-2.18,9.15-3.42,13.93h0ZM195.99,344.68c20.62-10.46,96.26-41.79,154.51-119.56-84.24,37.87-106.5,68.87-145.6,106.87-2.95,4.25-5.88,8.47-8.92,12.69h0Z"/>
    <path class="cls-8" d="M759.06,1554.51c-9.67-14.01-59.41-103.7-201.38-152.88l.14.23c18.56,19.62,60.12,56.25,108.83,93,25.89,19.52,56.88,38.23,92.31,59.62l.1.03ZM118.22,459.21v-.14c16.92-64.19,30.1-112.76,80.46-200.27l.06-.04c-7.41,82.04-38.51,129.27-80.52,200.45ZM294.78,218.7h0c36.92-47.37,70-81.48,143.11-140.94-38.07,69.04-82.98,90.94-143.11,140.94h0Z"/>
    <path class="cls-1" d="M448.16,114.65l.06-.04c62.83-28.11,106.54-48.85,210.96-63.16-30.48,16.14-139.21,60.34-211.02,63.2ZM1633.76,1278.42c-101.07,23.31-141.5,45.63-207.08,105.32-.23.23,135.85,8.04,207.08-105.32ZM1634.15,1162.03c14.2-6.6,119.95-45.15,146.14-190.98-26.65,27.71-53.18,42.33-83.72,81.61-18.92,24.36-39.4,59.37-62.41,109.37h0ZM1747.85,817.51c8.11-12.88,73.42-100.83,28.05-241.1-31.62,69.91-34.05,148.23-28.05,241.1ZM1686.54,459.21c.89-13.54,22.33-99.41-80.5-200.47,7.41,82.05,38.5,129.28,80.5,200.47ZM1510,218.7c-4.57-11.64-11.48-80.93-143.19-141.09,38.1,69.17,83.02,91.05,143.19,141.09Z"/>
    <path class="cls-10" d="M1356.62,114.65c.19,0-116.17-77.73-211.06-63.22,30.41,16.12,139.23,60.35,211.06,63.22Z"/>
    <path class="cls-8" d="M1722.16,600.39c-19.74-21.35-70.4-53.03-120.01-185.68,108.1,79.98,102.7,119.29,120.01,185.68ZM1608.79,344.68c-20.64-10.48-96.39-41.85-154.68-119.78,98.45,26.73,121.85,74.11,154.68,119.78Z"/>
    <path class="cls-1" d="M1701.2,1000.44c-9.62-28.08-37.47-76.17-16.67-241.23,58.82,117.7,35.26,176.14,16.67,241.23ZM1563.73,1244.51c-.42-27.92-11.65-79.42,57.12-218.44,18.88,123.03-20.41,166.99-57.12,218.44ZM1336.17,1438.88c9.76-26.96,21.24-102.69,133-194.31-23.09,123.47-79.92,154.94-133,194.31ZM1045.72,1554.51c9.67-14.01,59.39-103.7,201.38-152.88-64.05,97.79-130.07,133.83-201.38,152.88ZM1168.69,1526.23c14.67-7.59,119.59-64.15,247.95-39.36-76.51,54.67-159.62,50.52-247.95,39.36h0ZM910.52,1582.1c16.86-3.51,144.85-37.17,263.23,24.89-116.51,34.26-176.15,8.8-263.23-24.89Z"/>
    <path class="cls-8" d="M910.52,1582.1c16.85-3.51,144.79-37.15,263.15,24.85-67.88-.33-220.88-16.7-263-24.77l-.16-.07ZM1168.71,1526.23c14.7-7.61,119.61-64.15,247.94-39.36l-.04.03c-30.58,7.89-77.99,17.36-123.43,25.83-13.47,2.5-91.08,11.05-124.47,13.5ZM1633.76,1278.42c-101.04,23.31-141.47,45.63-207.04,105.29,111.86-36.9,187.29-83.85,207.04-105.29ZM1780.16,971.17c-26.61,27.62-53.1,42.26-83.6,81.48-17.79,22.91-36.98,55.23-58.34,100.58,67.11-63.55,99.91-96.73,141.93-182.06ZM1563.73,1244.47c-.43-27.94-11.61-79.43,57.08-218.31-1.02,23.07-6.17,63.49-20.04,113.98-8.64,31.49-21.37,64.92-37.04,104.33ZM1701.18,1000.41c-9.62-28.08-37.43-76.18-16.67-241.1,6.37,18.59,16.14,64.13,19.21,128.03,1.59,33.23,0,69.81-2.53,113.06ZM1336.17,1438.88c9.76-26.96,21.24-102.69,133-194.31-6.84,19.26-25.8,59.37-60.18,107.5-19.31,27.02-43.72,54.51-72.82,86.82h0ZM1775.88,576.46c-30.58,67.65-33.82,143.16-28.57,232.14,17.36-74.47,31.74-159.51,28.57-232.14Z"/>
    <path class="cls-1" d="M1722.16,600.39c-19.74-21.35-70.39-53.03-119.99-185.64,71.55,70.64,88.49,115.48,116.57,171.71,1.06,4.52,2.18,9.15,3.42,13.93ZM1608.79,344.68c-20.62-10.46-96.26-41.79-154.53-119.56,84.24,37.87,106.5,68.87,145.6,106.87,2.95,4.25,5.9,8.47,8.93,12.69h0Z"/>
    <path class="cls-8" d="M1045.72,1554.51c9.67-14.01,59.39-103.7,201.38-152.88l-.16.23c-18.56,19.62-60.12,56.25-108.83,93-25.89,19.52-56.89,38.23-92.31,59.62l-.09.03h0ZM1686.54,459.21v-.14c-16.9-64.19-30.08-112.76-80.46-200.27l-.04-.04c7.41,82.04,38.5,129.27,80.5,200.45ZM1510,218.7h-.01c-36.92-47.37-70.01-81.48-143.09-140.94,38.07,69.04,82.98,90.94,143.11,140.94h0Z"/>
    <path class="cls-1" d="M1356.62,114.65l-.06-.04c-62.83-28.11-106.55-48.85-210.96-63.16,30.47,16.14,139.21,60.34,211.02,63.2h0ZM903.59,430.3l-612.85,68.68,102.04,173.39,18.68,311.29.42,6.37.44,6.18.49,6.05.53,5.88.59,5.71.62,5.57.67,5.41.74,5.3.8,5.14.84,5.02.94,4.89,1,4.79,1.09,4.69,1.14,4.55,1.25,4.47,1.33,4.39,1.43,4.31,1.52,4.18,1.62,4.11,1.72,4.04,1.82,3.94,1.93,3.88,2.05,3.79,2.13,3.68,2.26,3.66,2.36,3.55,2.46,3.48,2.56,3.42,2.69,3.33,2.76,3.29,2.91,3.22,3.05,3.25,2.5,2.48,2.73,2.48,2.92,2.46,3.06,2.42,3.23,2.4,3.41,2.39,3.56,2.38,3.72,2.36,3.89,2.38,4.04,2.35,4.22,2.36,4.37,2.33,4.52,2.35,4.65,2.32,4.81,2.3,4.95,2.28,9.27,4.12,9.7,4.14,10.1,4.12,10.42,4.14,10.78,4.14,11.05,4.11,11.34,4.12,11.56,4.09,11.76,4.08,11.94,4.04,12.08,4.02,12.18,3.99,12.27,3.95,12.31,3.89,12.32,3.85,12.29,3.79,12.25,3.74,12.17,3.66,12.05,3.61,11.89,3.51,11.71,3.45,11.51,3.33,11.25,3.26,10.96,3.15,10.66,3.08,10.3,2.93,9.93,2.82,9.52,2.72,9.06,2.58,8.59,2.43,8.07,2.32,7.6,2.18,34.48,9.66V430.3h0Z"/>
    <path class="cls-3" d="M939.72,1278.59l7.6-2.18,8.07-2.32,8.57-2.43,9.07-2.58,9.5-2.72,9.93-2.82,10.32-2.93,10.65-3.08,10.96-3.15,11.25-3.26,11.51-3.33,11.71-3.45,11.89-3.51,12.05-3.61,12.17-3.66,12.25-3.74,12.29-3.79,12.32-3.85,12.31-3.89,12.27-3.95,12.18-3.99,12.09-4.02,11.94-4.04,11.76-4.08,11.56-4.09,11.32-4.12,11.06-4.11,10.78-4.14,10.43-4.14,10.09-4.12,9.7-4.14,9.29-4.12,4.94-2.28,4.81-2.32,4.67-2.3,4.51-2.35,4.37-2.33,4.22-2.36,4.04-2.35,3.89-2.38,3.72-2.36,3.56-2.38,3.41-2.39,3.23-2.4,3.08-2.42,2.91-2.46,2.73-2.48,2.5-2.48,3.06-3.25,2.88-3.22,2.79-3.29,2.68-3.35,2.56-3.41,2.46-3.48,2.36-3.56,2.26-3.65,2.13-3.68,2.05-3.79,1.93-3.88,1.82-3.94,1.72-4.04,1.62-4.12,1.5-4.18,1.43-4.29,1.35-4.39,1.25-4.47,1.14-4.57,1.07-4.69,1-4.78.94-4.89.84-5.02.8-5.14.74-5.3.67-5.41.63-5.57.59-5.72.52-5.87.49-6.05.44-6.18.4-6.37,18.71-311.29,102.03-173.39-612.85-68.68v857.95l34.49-9.66h0ZM903.59,450.71l-579.51,64.95,88.65,150.62,18.98,316.11c4.06,67.64,13.73,100.91,42.42,130.64,9.69,10.05,29.07,22.2,54.46,33.72,93.36,42.41,268.48,89.92,346.05,112.32l28.95,8.1V450.71Z"/>
    <path class="cls-6" d="M934.18,1259.08c77.57-22.38,252.68-69.9,346.08-112.32,25.38-11.52,44.74-23.67,54.44-33.72,28.7-29.73,38.36-63,42.42-130.64l18.98-316.11,88.63-150.62-579.51-64.95v816.45l28.95-8.1h0Z"/>
    <path class="cls-4" d="M904.41,1203.08l-28.92-6.05c-175.61-36.64-155.47-27.97-333.25-80.33-66.15-19.48-73.35-55.3-75.6-128.11l-7.01-330.68-62.73-112.82h1015.03l-62.73,112.82-7.01,330.68c-2.23,72.8-9.43,108.61-75.58,128.11-177.78,52.37-157.65,43.69-333.25,80.33l-28.94,6.05h0Z"/>
    <path class="cls-8" d="M1339.18,958.19l-.64,30.3-.49,13.17-.69,12.31-.94,11.45-1.23,10.08h-429.14v-37.04h16.26v-3.22h-16.26v-37.04h433.14ZM464.97,737.94l-1.63-77.3h439.45v77.3h-437.82Z"/>
    <path class="cls-2" d="M1334.65,1038.72l-1.25,7.18-2.22,9.07-2.73,8.36-3.36,7.64-4.06,7.03-4.82,6.43-5.7,5.9-6.67,5.41-7.73,4.98-8.9,4.55-10.16,4.15-11.54,3.78-16.06,4.72-15,4.39-14,4.09-13.04,3.76-12.18,3.49-11.38,3.23-10.65,2.99-9.98,2.78-9.4,2.58-8.89,2.39-8.46,2.22-8.07,2.08-7.8,1.96-7.54,1.85-7.41,1.76-7.33,1.7-7.33,1.66-7.38,1.63-7.56,1.62-7.74,1.63-8.03,1.67-8.39,1.72-8.82,1.79-9.32,1.89-9.89,1.99-10.55,2.12-11.25,2.28-12.04,2.43-12.9,2.63-13.83,2.82-14.83,3.06-15.9,3.31-26.56,5.55v-160.28h428.61ZM1341.41,852.94l-2.16,102h-433.21v-102h435.37ZM463.27,657.41v-.49s-60.17-108.18-60.17-108.18h499.69v108.67h-439.52ZM467.35,849.69l-2.3-108.51h437.75v108.51h-435.44Z"/>
    <path class="cls-9" d="M906.04,798.54v-46.37h220.48v46.37h-220.48ZM1377.12,600.17l-25.78,46.39h-221.59v-46.39h247.37ZM902.79,900.87v46.39h-220.48v-46.39h220.48ZM505.99,1096.38l-1.02-.64-6.66-5.41-5.7-5.9-4.82-6.43-4.06-7.03-3.36-7.64-2.75-8.36-1.2-4.97h202.64v46.37h-173.07Z"/>
    <path class="cls-11" d="M906.04,748.92v-48.03h220.48v48.03h-220.48ZM1126.52,849.69h-220.48v-47.9h220.48v47.9ZM1349.54,649.79l-3.98,7.13-.86,40.73h-214.95v-47.86h219.79ZM1129.75,548.74h275.96l-26.79,48.19h-249.17v-48.19ZM902.79,950.5v44.71h-220.48v-44.71h220.48ZM682.31,852.94h220.48v44.68h-220.48v-44.68ZM475.64,1046.76l-.21-.86-1.72-9.85-1.29-10.65-.94-11.45-.69-12.31-.11-3.19h208.4v48.3h-203.43ZM679.07,1151.58l-6.73-1.73-8.46-2.22-8.89-2.39-9.4-2.58-9.99-2.78-10.65-2.99-11.36-3.23-12.18-3.49-13.04-3.76-14-4.09-15-4.39-16.06-4.72-11.55-3.78-10.16-4.15-8.89-4.55-1.69-1.09h168.04v51.95h0Z"/>
    <path class="cls-13" d="M1344.64,700.89l-3.16,148.8h-211.73v-148.8h214.89ZM906.04,548.74h220.48v148.92h-220.48v-148.92ZM470.54,995.21l-.24-6.73-2.88-135.55h211.65v142.28h-208.53ZM902.79,1199l-26.56-5.55-15.9-3.31-14.83-3.06-13.83-2.82-12.91-2.63-12.04-2.43-11.25-2.28-10.53-2.12-9.89-1.99-9.3-1.89-8.83-1.79-8.39-1.72-8.04-1.67-7.74-1.63-7.53-1.62-7.4-1.63-7.33-1.66-7.33-1.7-7.41-1.76-7.56-1.85-5.88-1.47v-153.95h220.48v200.54h0Z"/>
    <path class="cls-12" d="M939.06,1276.24l7.59-2.18,8.07-2.32,8.57-2.43,9.07-2.58,9.52-2.71,9.93-2.82,10.3-2.95,10.65-3.06,10.96-3.16,11.25-3.23,11.49-3.36,11.71-3.43,11.89-3.51,12.05-3.61,12.15-3.66,12.24-3.74,12.29-3.79,12.31-3.84,12.29-3.91,12.27-3.94,12.17-3.98,12.07-4.02,11.92-4.04,11.75-4.08,11.55-4.08,11.31-4.11,11.05-4.11,10.75-4.12,10.4-4.12,10.06-4.12,9.67-4.12,9.25-4.11,4.92-2.26,4.78-2.3,4.61-2.29,4.49-2.32,4.32-2.32,4.19-2.35,3.99-2.32,3.85-2.35,3.68-2.35,3.51-2.33,3.38-2.36,3.16-2.36,3.02-2.38,2.85-2.4,2.66-2.42,2.43-2.4,3.01-3.19,2.85-3.18,2.75-3.23,2.62-3.29,2.52-3.35,2.43-3.42,2.32-3.51,2.22-3.58,2.1-3.62,1.99-3.72,1.89-3.81,1.8-3.88,1.69-3.96,1.6-4.06,1.47-4.12,1.42-4.22,1.32-4.35,1.23-4.41,1.14-4.51,1.06-4.64.99-4.74.93-4.85.84-4.98.8-5.11.73-5.27.69-5.38.62-5.52.57-5.7.52-5.84.49-6.03.44-6.18.42-6.35,18.73-311.86,100.38-170.57-26.68,13.32-89.68,152.38-18.96,315.71-.42,6.27-.42,6.05-.49,5.87-.5,5.68-.56,5.52-.59,5.34-.66,5.17-.69,5.01-.77,4.85-.8,4.72-.87,4.57-.92,4.44-1,4.29-1.04,4.16-1.13,4.05-1.19,3.95-1.27,3.81-1.36,3.74-1.42,3.65-1.5,3.51-1.59,3.45-1.67,3.36-1.76,3.28-1.86,3.21-1.96,3.15-2.05,3.09-2.13,3.02-2.23,2.98-2.35,2.92-2.45,2.89-2.56,2.86-2.66,2.83-1.98,1.95-2.2,2-2.4,2.05-2.62,2.05-2.83,2.1-3.01,2.12-3.22,2.13-3.39,2.18-3.58,2.16-3.74,2.19-3.95,2.2-4.08,2.19-4.26,2.19-4.41,2.2-4.55,2.18-4.71,2.18-9.03,4.02-9.45,4.02-9.89,4.04-10.23,4.05-10.59,4.06-10.91,4.06-11.18,4.06-11.44,4.04-11.65,4.04-11.82,4.01-11.99,3.99-12.09,3.95-12.18,3.94-12.24,3.86-12.25,3.82-12.24,3.78-12.19,3.72-12.11,3.65-12.01,3.59-11.85,3.51-11.69,3.42-11.45,3.35-11.22,3.25-10.95,3.15-10.63,3.05-10.29,2.93-9.92,2.82-9.5,2.71-9.07,2.59-8.6,2.45-8.09,2.3-7.56,2.18-30.21,8.46-30.2-8.46-7.57-2.18-8.07-2.3-8.6-2.45-9.07-2.59-9.5-2.71-9.93-2.82-10.29-2.93-10.63-3.05-10.93-3.15-11.23-3.25-11.45-3.35-11.69-3.42-11.85-3.51-12.01-3.59-12.09-3.65-12.21-3.72-12.22-3.78-12.25-3.82-12.24-3.86-12.19-3.94-12.09-3.95-11.98-3.99-11.82-4.01-11.66-4.04-11.42-4.04-11.18-4.06-10.92-4.06-10.58-4.06-10.25-4.05-9.88-4.04-9.45-4.02-9.02-4.02-4.71-2.16-4.57-2.19-4.41-2.2-4.26-2.19-4.08-2.19-3.95-2.2-3.74-2.19-3.58-2.16-3.39-2.18-3.22-2.13-3.01-2.12-2.83-2.1-2.6-2.05-2.4-2.05-2.22-2-1.98-1.95-2.66-2.83-2.56-2.86-2.45-2.89-2.35-2.92-2.23-2.98-2.15-3.02-2.03-3.08-1.96-3.16-1.86-3.21-1.76-3.28-1.67-3.36-1.6-3.45-1.5-3.52-1.42-3.62-1.35-3.74-1.29-3.82-1.19-3.95-1.13-4.05-1.04-4.15-.99-4.31-.93-4.44-.87-4.57-.8-4.72-.77-4.85-.69-4.99-.66-5.2-.59-5.32-.56-5.52-.52-5.68-.47-5.87-.43-6.05-.42-6.27-18.95-315.71-89.65-152.37-26.69-13.34,100.38,170.57,18.72,311.86.42,6.35.43,6.18.49,6.03.53,5.85.59,5.68.6,5.52.69,5.38.73,5.27.8,5.11.84,4.98.93,4.85.99,4.75,1.07,4.64,1.13,4.49,1.23,4.41,1.32,4.35,1.42,4.24,1.49,4.12,1.59,4.05,1.69,3.96,1.8,3.88,1.89,3.81,2,3.72,2.1,3.62,2.22,3.59,2.32,3.51,2.43,3.41,2.52,3.35,2.63,3.29,2.73,3.23,2.85,3.18,3.01,3.19,2.42,2.4,2.68,2.42,2.85,2.4,3.01,2.38,3.19,2.36,3.35,2.36,3.52,2.33,3.68,2.35,3.85,2.35,3.99,2.32,4.19,2.35,4.32,2.32,4.49,2.32,4.61,2.29,4.78,2.3,4.94,2.26,9.23,4.11,9.66,4.12,10.08,4.12,10.4,4.12,10.75,4.12,11.03,4.11,11.31,4.11,11.55,4.08,11.75,4.08,11.92,4.04,12.06,4.02,12.17,3.98,12.27,3.94,12.29,3.91,12.32,3.84,12.28,3.79,12.24,3.74,12.17,3.66,12.04,3.61,11.89,3.51,11.71,3.43,11.51,3.36,11.23,3.23,10.96,3.16,10.65,3.06,10.32,2.95,9.92,2.82,9.52,2.71,9.07,2.58,8.57,2.43,8.07,2.32,7.6,2.18,34.63,9.7,34.65-9.7h0Z"/>
  </g>
</svg>