<?xml version="1.0" encoding="UTF-8"?>
<svg id="Layer_2" data-name="Layer 2" xmlns="http://www.w3.org/2000/svg" viewBox="0 0 2279.4 1022.33">
  <defs>
    <style>
      .cls-1 {
        fill-rule: evenodd;
      }
    </style>
  </defs>
  <g id="Layer_1-2" data-name="Layer 1">
    <path class="cls-1" d="M1161.35,52.42c-46.44,57.27-178.92,242.18-194.01,266.13-29.07,45.87-31.63,68.1-32.49,82.92-.84,14.54-.84,40.75,22.8,62.13,39.61,35.33,95.16,29.62,144.46,29.62h406.02c17.38,0,22.52-5.14,31.92-17.66,32.48-49.58,47.02-103.43,47.02-151.59,0-103.15-66.95-233.07-236.49-291.77l-19.1,27.35c134.48,63.81,190.06,147.3,190.06,264.12.86,31.35-7.42,65.25-27.94,96.6h-394.92c-23.64,0-27.07-26.78-18.52-41.89,33.86-60.25,71.64-118.22,113.11-173.51,39.89-53.28,79.21-103.15,120.53-155.29,11.12-14.53,3.7-28.49-18.52-33.05-46.16-9.69-94.3-16.52-152.72-16.52-323.95,0-442.49,186.05-442.49,323.96,0,149.59,119.39,323.12,443.35,323.12,179.79,0,297.47-57.86,365.57-132.21h-68.67c-59.56,54.99-161.85,94.04-296.89,94.04-274.39,0-375.53-154.16-375.53-286.94,1.98-118.53,110.54-282.08,382.37-287.49,10.26-.29,18.25,9.12,11.1,17.95h0ZM2135.81,906.34c16.24,2.28,28.78,15.1,28.78,30.22,0,17.07-15.38,30.75-34.2,30.75h-348.16v-227.66h-102.59v228.24h-188.62c-51,0-61.53-31.06-61.53-59.56v-170.1h-170.1c-16.82,11.4-33.06,23.94-50.44,34.47l-100.87,62.11-131.06-95.73h-204.01v57.27h73.79v-31.36l173.52,124.54-118.53,74.34h-128.79v57.27h149.01c15.95-10.82,31.06-22.22,47.59-32.19l103.71-62.97,131.63,94.03h149.89l-198.05-149.02,101.73-66.37c21.66-14.27,44.46-26.21,66.68-39.31v149.87c0,63.25,16.24,107.13,143.6,107.13l719.45-1.7c55.55.83,91.16-37.61,91.16-84.04s-41.04-84.07-91.16-84.07h-259.85c3.42-31.62,30.75-58.1,58.39-58.1h262.99l-.83-54.99h-278.95c-88.34,0-158.98,73.23-160.98,158.43-.27,5.98,3.7,9.68,10.26,9.68l316.55-1.18h0ZM773.01,905.5v-58.42h50.71v58.42h-50.71ZM773.01,739.1h-192.61c-52.14,0-92.32,13.68-121.94,37.03-53.28,42.18-70.37,86.61-69.8,106.57h69.52c-30.49,22.8-51.01,50.13-61.83,81.77h-227.96c-41.02,0-67.53-29.05-67.53-57.27v-170.1H0v176.66c0,63.53,60.41,107.4,157.27,107.4h615.74v-57.27h-244.47c1.14-29.05,32.19-58.39,60.4-58.39h184.07v-58.42h-247.32c-3.41-17.09,28.49-50.71,52.99-50.71h194.33v-57.27h0Z"/>
  </g>
</svg>