<?xml version="1.0" encoding="UTF-8"?>
<svg id="Layer_2" data-name="Layer 2" xmlns="http://www.w3.org/2000/svg" viewBox="0 0 2279.41 717.66">
  <defs>
    <style>
      .cls-1 {
        fill: #fff;
      }

      .cls-1, .cls-2, .cls-3 {
        fill-rule: evenodd;
      }

      .cls-2, .cls-4 {
        fill: #dad5d3;
      }
    </style>
  </defs>
  <g id="Layer_1-2" data-name="Layer 1">
    <g>
      <path d="M1432.55,603.72c-76.7,63.84-182.64,103.36-299.83,103.36s-223.13-39.52-299.83-103.36c-77.13-64.19-124.77-153-124.77-251.06s47.64-185.95,124.77-249.82C909.58,39.32,1015.53,0,1132.71,0s223.13,39.31,299.83,102.84c77.13,63.88,124.76,152.23,124.76,249.82s-47.62,186.87-124.76,251.06Z"/>
      <path class="cls-4" d="M1132.71,694.88c114.24,0,217.41-38.46,292.04-100.54,74.42-61.96,120.37-147.45,120.37-241.69s-45.93-178.85-120.32-240.46c-74.63-61.79-177.8-100.01-292.09-100.01s-217.46,38.23-292.08,100.01c-74.39,61.61-120.33,146.66-120.33,240.46s45.95,179.72,120.39,241.69c74.62,62.09,177.79,100.54,292.03,100.54h0Z"/>
      <path d="M1132.71,672.05c107.87,0,205.73-35.93,276.53-94.03,70.35-57.75,113.94-137.43,113.94-225.38s-43.67-166.47-114.17-224.01c-70.78-57.78-168.53-93.64-276.31-93.64s-205.77,35.8-276.41,93.47c-70.5,57.55-114.06,136.92-114.06,224.18s43.47,167.8,113.85,225.56c70.66,58.01,168.43,93.85,276.63,93.85h0ZM1416.95,587.4c-72.9,59.86-173.5,96.85-284.23,96.85s-211.56-36.94-284.34-96.66c-73.14-60.01-118.32-143.07-118.32-234.92s45.29-173.78,118.58-233.61c72.75-59.39,173.13-96.24,284.08-96.24s211.1,36.92,283.99,96.42c73.25,59.82,118.67,142.43,118.67,233.43s-45.32,174.73-118.43,234.74h0Z"/>
      <path d="M958.76,687.89c-8.64-4.6-15.14-11.8-16.99-21.84-1.49-8.18.23-18.02,6.64-29.48l.08-.1,49.92-84.1c2.54-4.84,7.64-7.5,13.16-8.56,6.33-1.22,13.73-.3,17.68,1.7,3.76,1.88,8.81,6.67,11.82,12.18,1.71-1.15,3.56-2.09,5.5-2.79,6.2-2.23,13.81-2.31,17.85-.96h.03c3.75,1.27,9.38,5.34,13.13,10.34.6-.45,1.22-.86,1.85-1.25,5.28-3.03,11.22-4.75,17.3-5.02l1,.08c4.05.69,11.01,4.28,15.73,9.25l.3.32c.66-.66,1.36-1.3,2.1-1.89v-.03c5.3-4.28,12.74-6.86,16.85-6.86s11.54,2.58,16.86,6.86v.03c.74.61,1.41,1.25,2.08,1.89l.3-.32c4.73-4.97,11.7-8.56,15.76-9.25v.03-.03.03c.1-.03,1.01-.1.99-.1,3.85,0,11.14,1.49,16.82,4.97.77.45,1.47.96,2.18,1.49,3.75-5.1,9.49-9.27,13.27-10.53h.03c4.05-1.35,11.65-1.27,17.86.96,1.95.71,3.83,1.65,5.5,2.79,2.98-5.5,8.05-10.31,11.8-12.18h.03c3.7-1.97,11.14-2.89,17.51-1.67,5.58,1.06,10.79,3.72,13.32,8.53l49.93,84.1.16.27c6,11.56,7.65,21.4,6.16,29.58-1.83,9.86-8,17-16.59,21.56l-.4.23c-9.93,4.41-19.78,5.24-28.62.91-2.39-1.18-4.62-2.67-6.61-4.44-.32,1.12-.71,2.2-1.14,3.24-3.16,7.31-9.04,12.41-16.67,15.36v-.03c-.9.36-1.83.67-2.76.93v.03c-1.48.47-2.97.88-4.49,1.22-7.92,1.78-15.6,1.12-22.3-2.66-2.88-1.63-5.45-3.74-7.6-6.25-.44,1.26-.98,2.49-1.6,3.67-4.71,8.99-13.02,13.9-22.8,15.63l-.43.05c-10.56,1.12-20.09-1.14-27.24-8.05-1.36-1.33-2.59-2.79-3.67-4.36-4.6,8.33-13.16,13.7-22.66,14.21-1.47.1-2.94.1-4.41,0-1.12,0-2.11-.03-2.97-.1h-.03c-8.59-.61-16.12-3.64-21.62-9.7-1.29-1.42-2.44-2.98-3.42-4.63-1.13,1.65-2.41,3.18-3.83,4.59-7.12,6.91-16.65,9.17-27.22,8.05l-.43-.05c-9.79-1.73-18.11-6.64-22.79-15.63-.67-1.3-1.25-2.65-1.74-4.03-2.2,2.66-4.86,4.91-7.85,6.64-6.99,3.98-14.97,4.46-23.32,2.31-.97-.26-1.93-.53-2.89-.83,0-.03-.01-.03-.03-.03h-.01c-.99-.28-1.96-.61-2.92-.99-7.6-2.92-13.49-8-16.65-15.33-.46-1.05-.85-2.12-1.18-3.22-2.09,1.83-4.28,3.29-6.58,4.41-8.85,4.33-18.69,3.5-28.64-.91-.12-.1-.25-.18-.39-.25h0Z"/>
      <path class="cls-4" d="M995.27,661.45l.03-.13c.54-1.86,1.16-3.69,1.87-5.5l.08-.18,5.73-13.73,28.43-72.12.12-.27c.65-1.44.12-3.51-.91-5.55-1.76-3.54-4.72-6.54-6.78-7.57-1.98-.99-6.12-1.36-9.96-.64-2.23.43-4.14,1.17-4.68,2.28l-.22.38-49.93,84.1c-4.9,8.77-6.32,15.84-5.3,21.34,1.06,5.82,5.03,10.21,10.38,13.15,6.72,2.97,13.07,3.67,18.37,1.09,4.89-2.36,9.29-7.67,12.8-16.63h0ZM1014.31,646.32l-7.52,19.08c-.02.07-.05.14-.08.21-2.02,7.34-1.84,13.13.03,17.43,1.76,4.1,5.24,7.02,9.79,8.77l.03.03c.62.26,1.32.48,2.05.69l.22.08c.78.26,1.54.48,2.28.69,5.33,1.36,10.25,1.17,14.28-1.12,4.22-2.41,7.83-7.25,10.44-15.1.44-1.35.83-2.61,1.14-3.8h-.01l22.81-95.63.14-.51c.43-1.27-.35-3.11-1.6-4.94-2.27-3.32-5.64-6-7.69-6.69-1.98-.66-6.19-.45-9.95.88-2.11.77-3.86,1.83-4.31,3.14l-.17.43-31.89,76.37h0ZM1262.45,641.91l5.72,13.73.05.16c.73,1.86,1.38,3.76,1.95,5.68,3.5,8.94,7.9,14.24,12.76,16.61,5.29,2.58,11.65,1.88,18.34-1.09,5.24-2.89,8.96-7.15,10-12.84,1.01-5.6-.32-12.79-4.97-21.74l-49.88-84.01-.21-.38c-.53-1.06-2.53-1.83-4.84-2.26-3.93-.77-7.95-.51-9.4.35,0,.03-.4.26-.4.26-2.08,1.04-5.02,4.03-6.78,7.55-1.04,2.05-1.54,4.12-.91,5.58l.13.27,28.44,72.11h0ZM1163.96,662.3l1.17,14.51v.03c.1,1.25.13,2.41.16,3.59.88,8.92,3.5,14.94,7.22,18.57,4.18,4.05,10.18,5.37,17.09,4.73,6.19-1.09,11.32-4.03,14.06-9.27,2.61-4.97,3.32-12.18,1.19-22.09l-21.91-94.64-.05-.18c-.3-1.65-1.83-3.09-3.7-4.23-3.05-1.79-6.47-2.85-10-3.11-2.15.56-5.68,2.61-8.4,5.5-1.67,1.75-2.87,3.7-2.71,5.32l.05.18,5.82,81.09h0ZM1100.15,680.37c.03-1.22.08-2.36.16-3.5v-.05l1.17-14.44,5.85-81.16.05-.18c.16-1.62-1.04-3.57-2.71-5.32-2.72-2.89-6.26-4.94-8.42-5.5-3.69.25-7.28,1.35-10.49,3.19v.03c-1.7,1.04-3.02,2.26-3.15,3.54l-.12.77-21.91,94.64c-2.13,9.91-1.41,17.12,1.19,22.09,2.72,5.24,7.89,8.18,14.06,9.27,6.91.64,12.93-.69,17.09-4.73,3.75-3.64,6.34-9.68,7.22-18.64h0ZM1015.17,704.18s-.01-.03-.03-.03l.03.03ZM1222.7,574.25l-.03-.03.03.03ZM1222.67,574.22v-.03.03ZM1256.93,660.23l-37.69-90.28-.18-.43c-.43-1.32-2.18-2.39-4.31-3.14-3.75-1.35-7.95-1.54-9.93-.88h-.03c-2.05.69-5.4,3.37-7.68,6.69-1.25,1.83-2.02,3.67-1.6,4.94l.16.51,22.8,95.63v.1c.38,1.7.86,3.42,1.41,5.1,2.33,6.99,5.72,11.37,9.73,13.63,3.93,2.23,8.66,2.56,13.71,1.41.96-.21,2.08-.53,3.32-.93l.21-.05,10.08-32.29h0ZM1246.85,692.49c.66-.18,1.35-.4,2-.69l.03-.03c4.57-1.75,8.03-4.66,9.81-8.77,1.92-4.46,2.08-10.52-.23-18.29-.43-1.5-.93-2.98-1.49-4.44l-.03-.08s0,.05.03.08l-10.1,32.2h0ZM1153.01,684.7c.13-2.1.1-4.44-.08-6.94l-7.9-97.4v-.45c0-1.57-1.35-3.24-3.13-4.68h-.01c-3.2-2.58-7.2-4.15-9.18-4.15s-5.98,1.57-9.18,4.15h-.01c-1.78,1.44-3.13,3.11-3.13,4.68v.45l-7.9,97.4c-.1,1.35-.16,2.7-.17,4.05,0,8.31,2,14.11,5.34,17.78,3.19,3.51,7.91,5.32,13.48,5.69.93.08,1.76.1,2.46.1h.32l19.08-20.69h0ZM1133.92,705.4c.96.05,1.92.05,2.89,0,4.23-.3,8.02-1.95,10.78-5.05,3-3.35,4.99-8.51,5.42-15.63v-.03.03l-19.09,20.67ZM1042.74,574.2v.05s0-.05,0-.05Z"/>
      <path class="cls-3" d="M870.37,447.42c-17.55,9.65-67.55,23.68-81.61-8.79-20.18,10.53-61.41,18.44-81.59-7.9-33.33,7.9-71.06,24.58-85.11-14.03-29.83,7.9-103.52,26.32-111.42-21.93-43.86,6.16-107.04,10.53-115.82-35.95-37.73,0-102.66-6.15-102.66-49.14-37.73,0-103.52-25.45-95.64-56.15-34.23-3.51-79.84-39.48-79.84-63.18-33.35-10.53-71.06-35.97-63.18-70.19C33.33,107.87,0,93.82,0,73.66s15.8-35.97,33.35-35.97c18.42,0,85.98,10.53,109.67,10.53s311.47-6.15,379.03-2.63c67.56,4.38,153.54,2.63,194.78-1.76,42.11-3.5,220.21-13.15,244.79,35.98,17.55,35.97,4.38,48.26-11.4,62.29-16.67,14.05-70.19,39.49-70.19,123.72s10.54,127.19-9.65,181.6h0Z"/>
      <path class="cls-2" d="M63.2,57.86c61.41,0,204.43,4.38,232.51,4.38s224.61,21.93,255.32,31.58c14.03,4.4,17.55,18.43,0,19.3-16.68.88-219.34,3.51-249.18,3.51s-234.26,3.51-261.46-32.46c-20.19-26.32,5.25-25.45,22.8-26.32h0ZM844.06,278.95c-9.65-7.03-28.08,13.15-35.1,24.56-6.13,12.28-1.75,19.3,5.27,22.81,7.02,2.63,19.3-4.38,21.93-10.53,2.63-7.02,17.55-27.2,7.9-36.85ZM838.79,373.7c-13.16,16.67-26.32,28.95-34.23,39.49-7.89,9.65,1.75,20.17,9.65,22.8,8.78,2.63,23.7,11.43,41.24-24.55l-16.67-37.74ZM783.52,275.45c-8.77,9.65-29.83,24.56-14.05,35.97,14.05,9.65,21.93,0,28.95-7.02,6.15-7.02,29.83-30.71,21.06-41.24-8.77-9.65-28.07,7.9-35.97,12.3ZM737.9,267.55c-28.95,18.42,3.51,34.21,21.93,18.42,9.65-7.9,29.83-23.7,21.06-35.1-7.9-9.65-34.23,12.28-42.99,16.68ZM741.4,232.44c-14.05,6.15-57.9,21.06-43.86,40.36,7.9,8.78,21.93.88,27.2-2.63,6.15-3.51,36.85-24.56,28.95-36.85-2.62-4.38-9.65-2.63-12.28-.88h0ZM665.08,225.43c-12.28,7.9-6.15,38.61,21.93,24.58,28.95-14.05,49.13-28.08,44.75-38.61-4.4-9.65-36.85-1.76-66.68,14.03ZM677.36,181.56c-12.28,4.38-25.45,10.52-35.1,16.67-9.65,6.13-17.55,28.95,20.18,19.3,38.61-10.53,40.36-23.7,35.1-32.46-5.27-8.77-17.55-4.38-20.18-3.5h0ZM629.98,165.78c-9.65.87-18.42,8.77-15.78,17.55,3.5,10.53,26.32,14.05,50.88,1.75,25.45-13.16,23.7-15.78,21.06-22.81-2.63-7.02-28.96-1.76-56.16,3.51ZM605.42,134.19c-14.92,2.63-14.92,8.77-13.16,14.05,1.75,5.25,9.65,14.9,35.1,10.53,26.32-3.51,40.36-14.05,40.36-22.81s-46.51-3.53-62.29-1.76h0ZM601.9,103.47c-26.33,0-27.2,28.08,2.63,26.33,23.68-.87,51.76-7.03,51.76-15.78-.87-9.66-35.1-10.54-54.4-10.54h0ZM687.01,109.62c21.06,0,97.39-1.75,119.32,2.63,21.93,3.51,49.14,9.65,60.54,29.83,10.53,16.68-6.15,43.88-14.05,55.28-8.77,10.53-31.59,32.46-40.35,40.36-7.9,6.15-22.81-3.51-9.65-18.43-16.68,9.66-37.73,7.9-28.08-15.8-14.92,12.28-39.48,13.16-24.56-17.55-9.65,7.9-37.73,7.02-20.18-16.67-14.92,4.38-31.58-4.38-21.05-19.3-18.43,2.63-29.83-11.4-9.66-21.93-18.42,5.25-23.7-16.68-12.28-18.43h0ZM452.75,54.34c26.32,0,113.19,5.27,145.64,5.27s105.29-1.75,131.6-3.51c27.2-1.76,97.39-3.51,125.47,0,28.08,2.63,89.49,7.02,100.02,35.97,11.4,28.95-12.28,44.75-27.2,56.16-14.92,10.53-61.41,37.73-63.18,107.92-11.4-5.27-28.95-7.9-16.67-33.35,7.02-14.03,40.35-59.66,32.46-80.72-7.9-21.06-33.35-37.72-92.14-40.36-58.78-1.75-141.25,0-170.2-4.37-28.95-5.27-139.5-33.35-162.32-35.98-10.52-1.75-10.52-6.13-3.5-7.02h0ZM798.43,349.15c-15.78,15.8-39.48,42.11-56.15,56.15-11.4,10.53-3.51,30.7,15.8,21.93,18.42-8.77,52.64-40.35,62.29-71.06-7.43-1.95-14.76-4.29-21.94-7.02ZM753.69,334.23c-25.43,17.55-83.34,56.15-92.99,63.16-13.16,8.79-20.18,23.68,6.15,21.93,25.43-2.63,73.69-21.05,111.42-76.33-5.27-1.75-18.43-6.13-24.58-8.77h0ZM708.07,307.92c-14.92,9.65-112.31,60.53-157.05,73.69-14.92,5.27-7.9,19.3,7.02,21.05,14.92,2.63,52.64,2.63,97.39-24.58,27.2-15.78,66.68-44.73,78.96-55.26-6.15-2.63-19.3-10.52-26.32-14.9ZM666.84,273.69c-22.81,11.4-162.32,69.31-215.84,81.61-14.92,3.51-22.81,14.92-5.27,21.05,18.42,5.27,59.66,2.63,85.11-4.38,24.56-7.02,125.46-39.48,164.05-77.21-7.89-3.51-26.32-16.68-28.05-21.06ZM337.81,315.8c24.56-5.27,226.36-50.88,284.27-72.83,16.67-5.27,22.81,0,25.43,6.15,3.51,6.15,4.38,14.92-7.02,20.18-10.53,4.38-165.83,68.43-239.53,72.81-26.32,0-48.26-9.65-60.54-14.9-7.87-4.4-4.37-4.4-2.62-11.41ZM243.94,264.04c35.1-4.38,266.72-41.24,329.02-57.9,25.45-6.15,36.85-3.51,40.36,3.5,2.63,7.03,2.63,19.31-14.92,25.45-18.42,6.15-222.86,53.53-260.58,56.16-37.73,1.75-82.47-7.03-94.76-16.67-11.41-8.78.87-10.54.87-10.54h0ZM169.36,201.74c25.45,0,318.49-21.93,379.9-35.1,21.06-1.75,35.1-2.63,36.85,6.13,1.75,8.78.88,13.16-16.67,18.43-18.42,4.38-236.01,45.63-345.68,47.38-36.85-.87-79.84-35.98-54.4-36.85h0ZM100.05,135.94c35.97.88,214.96,1.75,236.01.88,20.18-.88,182.5-9.65,200.91-10.53,19.3-1.75,36.85,3.51,36.85,9.65s-3.51,11.4-25.45,15.78c-21.93,5.27-223.73,28.08-376.4,25.45-28.95.87-67.56-14.05-78.09-28.08-9.64-14.03.89-13.15,6.16-13.15h0ZM908.36,82.82c-9.09-4.55-2.58-17.63,6.51-13.09,7.38,3.7,15.27,8.11,21.57,12.89,7.25,5.5,12.67,11.76,13.93,18.69l.14.69c.54,6.54-.31,12.89-3.96,19.62-3.36,6.2-9.08,12.49-18.35,19.32-8.18,6.03-16.8-5.75-8.62-11.76,7.39-5.45,11.78-10.13,14.11-14.46,2.02-3.74,2.5-7.46,2.2-11.37-.8-2.62-4.02-5.8-8.33-9.07-5.51-4.22-12.57-8.14-19.21-11.47h0Z"/>
      <path class="cls-3" d="M1409.09,447.42c17.56,9.65,67.56,23.68,81.59-8.79,19.3,10.53,61.4,18.44,81.59-7.9,33.33,7.9,71.06,24.58,85.11-14.03,29.82,7.9,103.52,26.32,111.41-21.93,43.88,6.16,107.05,10.53,114.95-35.95,37.72,0,103.52-6.15,103.52-49.14,37.72,0,103.5-25.45,95.63-56.15,33.33-3.51,78.96-39.48,78.96-63.18,34.23-10.53,71.94-35.97,64.06-70.19,20.17-12.28,53.5-26.33,53.5-46.5s-15.78-35.97-33.33-35.97c-18.42,0-85.98,10.53-109.66,10.53s-312.36-6.15-379.9-2.63c-67.59,4.38-152.67,2.63-194.81-1.76-41.22-3.5-219.34-13.15-243.9,35.98-18.44,35.97-4.41,48.26,11.4,62.29,15.78,14.05,69.31,39.49,69.31,123.72.03,83.33-9.62,127.19,10.56,181.6h0Z"/>
      <path class="cls-2" d="M2216.29,57.86c-62.32,0-205.31,4.38-232.52,4.38s-224.61,21.93-256.18,31.58c-13.18,4.4-16.69,18.43,0,19.3,17.54.88,220.21,3.51,250.04,3.51s233.38,3.51,261.44-32.46c19.31-26.32-5.27-25.45-22.79-26.32ZM1435.42,278.95c8.77-7.03,28.07,13.15,34.2,24.56,7.04,12.28,1.78,19.3-5.24,22.81-6.13,2.63-18.44-4.38-21.05-10.53-2.65-7.02-17.56-27.2-7.91-36.85ZM1440.68,373.7c13.15,16.67,26.32,28.95,34.2,39.49,7.9,9.65-2.63,20.17-10.52,22.8-7.9,2.63-22.83,11.43-40.35-24.55l16.67-37.74h0ZM1495.96,275.45c8.77,9.65,29.82,24.56,13.15,35.97-13.15,9.65-21.93,0-28.07-7.02-6.16-7.02-29.84-30.71-21.08-41.24,8.78-9.65,28.08,7.9,35.99,12.3ZM1541.57,267.55c28.07,18.42-4.38,34.21-21.93,18.42-10.53-7.9-30.7-23.7-21.05-35.1,7.87-9.65,34.2,12.28,42.98,16.68ZM1538.06,232.44c14.03,6.15,57.91,21.06,43.88,40.36-7.9,8.78-21.93.88-27.21-2.63-6.13-3.51-37.72-24.56-29.82-36.85,3.5-4.38,10.52-2.63,13.15-.88h0ZM1613.52,225.43c13.15,7.9,7.02,38.61-21.93,24.58-28.07-14.05-48.26-28.08-43.88-38.61,4.38-9.65,36.86-1.76,65.81,14.03ZM1602.09,181.56c12.31,4.38,24.58,10.52,35.11,16.67,9.65,6.13,17.56,28.95-21.05,19.3-37.74-10.53-39.49-23.7-34.23-32.46,5.28-8.77,16.68-4.38,20.17-3.5h0ZM1648.6,165.78c10.53.87,19.3,8.77,16.67,17.55-3.5,10.53-26.32,14.05-50.87,1.75-25.46-13.16-23.71-15.78-21.08-22.81,2.65-7.02,28.08-1.76,55.28,3.51ZM1674.06,134.19c14.89,2.63,14.89,8.77,13.15,14.05-2.63,5.25-10.52,14.9-35.97,10.53-25.43-3.51-39.49-14.05-39.49-22.81s46.5-3.53,62.31-1.76h0ZM1677.56,103.47c26.32,0,26.32,28.08-3.5,26.33-22.83-.87-50.89-7.03-50.89-15.78.89-9.66,35.08-10.54,54.4-10.54h0ZM1591.58,109.62c-21.05,0-97.4-1.75-119.33,2.63-21.93,3.51-49.12,9.65-60.52,29.83-9.65,16.68,7.02,43.88,14.92,55.28,7.87,10.53,30.7,32.46,40.35,40.36,7.87,6.15,22.8-3.51,9.65-18.43,16.67,9.66,37.72,7.9,28.07-15.8,14.92,12.28,39.49,13.16,24.58-17.55,9.65,7.9,37.72,7.02,20.17-16.67,14.92,4.38,31.59-4.38,20.19-19.3,19.3,2.63,29.84-11.4,10.53-21.93,18.42,5.25,23.68-16.68,11.4-18.43h0ZM1826.71,54.34c-26.32,0-114.04,5.27-145.64,5.27s-105.28-1.75-131.62-3.51c-27.18-1.76-97.38-3.51-125.44,0-28.09,2.63-89.49,7.02-100.92,35.97-10.52,28.95,13.18,44.75,28.09,56.16,14.92,10.53,60.54,37.73,62.29,107.92,12.28-5.27,28.95-7.9,17.56-33.35-7.02-14.03-41.24-59.66-33.36-80.72,7.9-21.06,34.23-37.72,93.02-40.36,58.77-1.75,141.25,0,169.32-4.37,28.95-5.27,140.38-33.35,163.21-35.98,9.62-1.75,9.62-6.13,3.48-7.02ZM1480.15,349.15c15.81,15.8,40.37,42.11,57.04,56.15,10.52,10.53,2.61,30.7-15.81,21.93-19.3-8.77-53.53-40.35-62.29-71.06,7.18-1.82,14.22-4.16,21.06-7.02ZM1524.91,334.23c25.43,17.55,84.23,56.15,93.88,63.16,13.15,8.79,19.3,23.68-6.16,21.93-25.43-2.63-73.69-21.05-111.44-76.33,5.28-1.75,18.46-6.13,23.72-8.77ZM1570.53,307.92c14.89,9.65,112.29,60.53,157.05,73.69,14.89,5.27,7.87,19.3-7.04,21.05-14.03,2.63-52.64,2.63-97.38-24.58-26.32-15.78-65.81-44.73-78.09-55.26,6.15-2.63,19.3-10.52,25.46-14.9ZM1612.63,273.69c22.83,11.4,162.33,69.31,215.86,81.61,14.89,3.51,22.8,14.92,4.38,21.05-17.56,5.27-58.79,2.63-84.23-4.38-24.58-7.02-125.47-39.48-164.07-77.21,7.89-3.51,26.3-16.68,28.05-21.06ZM1941.64,315.8c-24.55-5.27-226.34-50.88-284.25-72.83-16.69-5.27-22.83,0-25.46,6.15-3.5,6.15-4.38,14.92,6.16,20.18,11.4,4.38,166.69,68.43,239.51,72.81,27.21,0,49.14-9.65,61.42-14.9,7.87-4.4,4.38-4.4,2.61-11.41h0ZM2034.66,264.04c-34.23-4.38-265.85-41.24-328.15-57.9-25.43-6.15-36.86-3.51-40.35,3.5-2.63,7.03-2.63,19.31,14.92,25.45,18.42,6.15,222.85,53.53,260.56,56.16,37.74,1.75,82.47-7.03,94.77-16.67,11.43-8.78-1.75-10.54-1.75-10.54h0ZM2109.23,201.74c-24.58,0-317.6-21.93-379.04-35.1-21.05-1.75-35.08-2.63-36.83,6.13-1.78,8.78-.88,13.16,16.67,18.43,17.56,4.38,235.13,45.63,345.67,47.38,36.87-.87,79.85-35.98,53.54-36.85h0ZM2179.43,135.94c-35.97.88-214.96,1.75-236.01.88-21.05-.88-182.48-9.65-201.8-10.53-18.44-1.75-36.86,3.51-36.86,9.65s4.38,11.4,26.32,15.78c21.93,5.27,223.73,28.08,376.4,25.45,28.95.87,67.56-14.05,77.21-28.08,10.53-14.03-.87-13.15-5.25-13.15h0ZM1363.72,69.74c9.09-4.54,15.6,8.53,6.51,13.09-6.72,3.35-13.77,7.29-19.1,11.4-4.28,3.32-7.34,6.5-7.6,8.98h.05c-.35,4.05-.05,7.85,1.89,11.61,2.23,4.25,6.54,8.85,14.29,14.27,8.34,5.82-.08,17.82-8.4,11.98-9.81-6.87-15.58-13.24-18.85-19.51-3.51-6.77-4.1-13.07-3.57-19.55l.08-.05c.64-7.16,5.9-13.62,13.23-19.26,6.28-4.89,14.12-9.29,21.46-12.96h0Z"/>
      <path class="cls-3" d="M1132.71,579.01c167.58,0,303.58-100.89,303.58-226.36s-136-224.61-303.58-224.61-303.57,100.9-303.57,224.61,136,226.36,303.57,226.36h0Z"/>
      <path class="cls-4" d="M1132.71,554.09c75.35,0,143.54-22.77,192.81-59.61,48.69-36.41,78.83-86.56,78.83-141.84s-30.25-104.3-79.06-140.5c-49.25-36.5-117.34-59.18-192.59-59.18s-143.33,22.68-192.58,59.18c-48.83,36.2-79.05,85.98-79.05,140.5s30.13,105.43,78.83,141.84c49.27,36.83,117.44,59.61,192.81,59.61ZM1333.28,504.9c-51.4,38.43-122.33,62.19-200.56,62.19s-149.15-23.76-200.58-62.19c-51.92-38.83-84.04-92.64-84.04-152.24s32.24-112.28,84.33-150.89c51.4-38.11,122.21-61.79,200.28-61.79s148.88,23.68,200.28,61.79c52.11,38.62,84.33,92.07,84.33,150.89.01,59.6-32.1,113.39-84.03,152.24Z"/>
      <path class="cls-1" d="M1266.07,271.06c0-33.33-35.08-83.34-135.99-83.34-59.66,0-109.67,14.92-139.49,42.98,7.02,6.15,14.9,14.92,14.9,25.45v181.62c-.87,11.4-6.15,20.17-14.03,29.82,28.08,22.83,75.45,42.98,149.15,41.24,73.71-1.75,142.12-25.43,142.12-93.88,0-28.95-27.18-57.91-57.02-67.55-7.9-2.63-6.13-10.53,0-13.16s40.35-28.95,40.35-63.18h0ZM1139.73,469.56c30,0,53.67-24.58,53.67-55.47s-23.66-55.48-53.67-55.48-53.66,24.56-53.66,55.48,23.64,55.47,53.66,55.47ZM1133.6,328.08c25.45,0,46.5-22.81,46.5-50.88s-21.05-50.89-46.5-50.89-46.5,22.81-46.5,50.89c-.01,28.08,21.05,50.88,46.5,50.88Z"/>
    </g>
  </g>
</svg>