<svg id="Layer_1" data-name="Layer 1" xmlns="http://www.w3.org/2000/svg" viewBox="0 0 559.08 284.54"><title>Corvette Racing logo - Brandlogos.net</title><path d="M478,364l37.21-67.49c.94-1.71,2-2.45,6.12-2.92l64.21-7.36c4.43-.51,4.83-.68,2.27,3.38l-41.67,66c-1.29,2.05-4.29,2.7-6.72,2.92L478,364Z" transform="translate(-52 -272)" style="fill:#c7252d;stroke:#231f20;stroke-miterlimit:2.613100051879883;stroke-width:0.2160000056028366px;fill-rule:evenodd"/><path d="M195.3,380.12l-7.8-14-60.58-5.36a17.15,17.15,0,0,1-4.36-.9,7.76,7.76,0,0,1-4-3l-41.67-66c-2.22-3.52-2.9-5.15-.69-6.54,1.07-.67,2.41-.52,4.66-.26l.42,0,64.21,7.36a14.68,14.68,0,0,1,5,1.23,6.22,6.22,0,0,1,2.79,2.83l5.38,9.76,115.59,13.13a27.31,27.31,0,0,1,16.51,8.24,22.81,22.81,0,0,1,2.28,2.86,20.74,20.74,0,0,1,1.78,3.22v0l29.9,68.43L312.1,430,299.71,401.4c-1.21-2.79-4.18-4.91-7.41-6.08a17.58,17.58,0,0,0-2-.58,16,16,0,0,0-1.93-.33h0l-85.48-9a10,10,0,0,1-6-3.16,11.19,11.19,0,0,1-.85-1h0a10.54,10.54,0,0,1-.71-1.09h0l0,0Z" transform="translate(-52 -272)" style="fill:#231f20"/><path d="M525.19,336.17h2.52s12.08-21.21,14-24.24c2.19-3,2-11.87.95-12.37-1.28-.51-9.07,10.61-10.77,13.38-1.44,3-6.73,23.23-6.73,23.23Z" transform="translate(-52 -272)" style="fill:#ffca05;fill-rule:evenodd"/><path d="M523.68,336.17h-2.52s1.93-13.38-.58-12.63c-3.51,1-6.26,2-6.26,2s9.3-11.36,11.38-9.09c0,.25,2.65,4.8-2,19.7Z" transform="translate(-52 -272)" style="fill:#ffca05;fill-rule:evenodd"/><path d="M529,336.17h3.28s15.83-23,20.12-12.88c0,0-.49-9.09-3.52-9.09s-10.18,6.56-19.89,22Z" transform="translate(-52 -272)" style="fill:#ffca05;fill-rule:evenodd"/><polygon points="466.75 68.97 479.12 68.97 479.8 65.68 467.68 65.68 466.75 68.97 466.75 68.97" style="fill:#ffca05;fill-rule:evenodd"/><polygon points="469.31 70.23 474.86 70.23 468.71 76.54 469.31 70.23 469.31 70.23" style="fill:#ffca05;fill-rule:evenodd"/><path d="M509.43,307.29,469.3,379a8.29,8.29,0,0,1-5.9,4.18l-85.48,9c-5.16.54-11.07,3.58-13.13,8.32l-27.14,62.59c-3.14,7.25-5.72,5.88-6.75,3.79L325,455c-1.49-3-1.19-7,.16-10.11l48.6-111.23c3.13-7.17,11-12.15,18.79-13l116.87-13.27Z" transform="translate(-52 -272)" style="fill:#ec1c24;stroke:#231f20;stroke-miterlimit:2.613100051879883;stroke-width:0.2160000056028366px;fill-rule:evenodd"/><path d="M497.74,323.66,505.28,310,392.8,322.76A22.75,22.75,0,0,0,379,329.62a18.47,18.47,0,0,0-1.84,2.31,16.26,16.26,0,0,0-1.39,2.53v0L327.2,445.72a11.37,11.37,0,0,0-.86,6.12,8,8,0,0,0,.25,1.1,6.72,6.72,0,0,0,.4,1h0v0l5.9,11.95a2,2,0,0,0,.22.36l.24-.23a12.25,12.25,0,0,0,2.28-3.82l27.14-62.59c1.74-4,5.7-6.95,10-8.49a21.86,21.86,0,0,1,2.46-.74,20.34,20.34,0,0,1,2.47-.42h0l85.48-9a5.56,5.56,0,0,0,3.27-1.81,6.62,6.62,0,0,0,.51-.61h0a6,6,0,0,0,.41-.62h0l0,0h0l30.37-54.3ZM479,366.17l-7.8,14h0l0,0h0a10.54,10.54,0,0,1-.71,1.09h0a11.21,11.21,0,0,1-.85,1,10,10,0,0,1-6,3.16l-85.48,9h0a16,16,0,0,0-1.93.33,17.47,17.47,0,0,0-2,.58c-3.24,1.17-6.2,3.29-7.41,6.08L339.68,464a16.36,16.36,0,0,1-3.27,5.25,5,5,0,0,1-3,1.52,4,4,0,0,1-2.93-.9,5.84,5.84,0,0,1-1.55-2L323,455.93v0l0,0h0a11.22,11.22,0,0,1-.64-1.65,12.44,12.44,0,0,1-.39-1.71,15.88,15.88,0,0,1,1.17-8.57l48.6-111.23v0a20.75,20.75,0,0,1,1.78-3.22,22.77,22.77,0,0,1,2.28-2.86,27.31,27.31,0,0,1,16.51-8.24L507.9,305.24l5.38-9.76a6.22,6.22,0,0,1,2.79-2.83,14.68,14.68,0,0,1,5-1.23l64.21-7.36.42,0c2.25-.26,3.58-.41,4.66.26,2.2,1.39,1.53,3-.69,6.54l-41.67,66a7.76,7.76,0,0,1-4,3,17.15,17.15,0,0,1-4.36.9L479,366.17Zm32.32-57.8-9.14,16.34L482,361.46l57.28-5.06a12.87,12.87,0,0,0,3.21-.64,3.55,3.55,0,0,0,1.83-1.25l41.67-66v0l-.16,0-64.21,7.36a11.22,11.22,0,0,0-3.51.77,2.26,2.26,0,0,0-.92,1l-3.87,7,.17,0-2.1,3.76Z" transform="translate(-52 -272)" style="fill:#231f20;stroke:#231f20;stroke-miterlimit:2.613100051879883;stroke-width:0.2160000056028366px"/><polygon points="5.35 284.54 4.13 284.02 2.43 283 0.49 281.71 0 280.43 0 278.63 0 276.83 0.49 274.26 5.35 263.21 7.54 259.61 10.45 256.53 12.15 255.25 14.59 254.47 17.5 253.96 20.9 253.96 76.08 253.96 76.57 253.96 76.57 255.25 74.87 258.84 74.38 259.61 73.17 260.13 22.61 260.13 19.69 260.64 18.47 261.93 17.99 263.21 12.88 274.77 12.88 276.06 12.88 277.34 13.37 277.86 15.07 278.63 65.63 278.63 66.12 278.63 66.12 279.91 64.41 283.51 63.93 284.02 62.96 284.54 5.35 284.54 5.35 284.54" style="fill:#231f20;fill-rule:evenodd"/><polygon points="550.39 272.46 551.6 271.69 552.08 270.66 554.01 266.81 554.01 266.29 553.29 265.52 504.31 265.52 503.35 266.29 502.62 266.81 500.93 270.66 500.93 271.69 501.41 272.46 550.39 272.46 550.39 272.46" style="fill:#231f20;fill-rule:evenodd"/><polygon points="370.51 272.46 371.53 271.69 372.29 270.66 374.07 266.81 374.07 266.29 373.31 265.52 322.01 265.52 320.74 266.29 319.98 266.81 318.2 270.66 318.2 271.69 318.97 272.46 370.51 272.46 370.51 272.46" style="fill:#231f20;fill-rule:evenodd"/><polygon points="340.6 76.02 361.7 74.46 365.09 66.18 390.57 64.39 388.38 71.5 414.82 69.05 403.18 82.6 383.05 84.43 380.13 91.78 353.94 93.48 356.6 87.14 329.44 89.83 340.6 76.02 340.6 76.02" style="fill:#ffca05;fill-rule:evenodd"/><polygon points="314.08 209.55 314.08 202.34 311.51 202.34 311.51 200.88 318.4 200.88 318.4 202.34 315.83 202.34 315.83 209.55 314.08 209.55 314.08 209.55" style="fill:#231f20"/><polygon points="319.51 209.55 319.51 200.88 322.13 200.88 323.7 206.79 325.26 200.88 327.88 200.88 327.88 209.55 326.26 209.55 326.26 202.72 324.54 209.55 322.85 209.55 321.13 202.72 321.13 209.55 319.51 209.55 319.51 209.55" style="fill:#231f20"/><path d="M366.08,481.55v-7.21h-2.57v-1.47h6.89v1.47h-2.57v7.21Zm5.43,0v-8.67h2.62l1.57,5.92,1.56-5.92h2.63v8.67h-1.63v-6.83l-1.72,6.83h-1.69l-1.72-6.83v6.83Z" transform="translate(-52 -272)" style="fill:none;stroke:#231f20;stroke-miterlimit:2.613100051879883;stroke-width:0.2160000056028366px"/><path d="M277.45,388.81l-11.71-23.89L224.9,360.6l12.52,24,40,4.2Zm-22.67-46.25-11.39-23.24-42.55-4.83,12.42,23.8,41.52,4.27Z" transform="translate(-52 -272)" style="fill:#fff;fill-rule:evenodd"/><path d="M305.89,369.17l-40.15-4.25-11-22.36,41.34,4.25,9.77,22.36Zm-81-8.56-37.69-4-12.47-22.29,38.51,4L224.9,360.6Z" transform="translate(-52 -272)" style="fill:#fff;fill-rule:evenodd"/><polygon points="57.3 61.98 85.64 63.47 72.58 41.62 43.23 39.67 57.3 61.98 57.3 61.98" style="fill:#fff;fill-rule:evenodd"/><path d="M111.65,292l12.92,21.61,31.7,2.11L168,337.07l-30.4-1.6,13.79,23.06,33.14,2.93-13.36-24.22h0l-11.74-21.3-10.11-18.33a2.26,2.26,0,0,0-.92-1,11.22,11.22,0,0,0-3.51-.77L111.65,292Z" transform="translate(-52 -272)" style="fill:#fff;fill-rule:evenodd"/><path d="M286.78,404.82l.14,0h.21l.11,0,.11,0,.09,0,.09,0,.1,0,.13,0,.09,0,.1,0,.12,0,.08,0,.09,0,0,0,.29.11.24.1.23.11.21.11.19.11.17.1.15.1.11.08h0l23.24,53.59.06,0,.05.12.18.41.31.66.06.1,5.79,11.73.81,1.64.79,1.55.76,1.46.74,1.37.72,1.28.72,1.2.72,1.12.73,1,.76,1,.82.93.91.88,1,.81,1.24.71,1.46.53,1.62.24,1.66-.13,1.53-.45,1.33-.68,1.12-.81,1-.89.85-1,.78-1,.74-1.09.72-1.17.71-1.25.72-1.35.73-1.45.76-1.56.78-1.66.81-1.78.84-1.89.88-2,27-62.22h0l.11-.08.15-.1.16-.1.19-.11.21-.11.23-.11.24-.1.29-.11,0,0,.09,0,.08,0,.12,0,.1,0,.09,0,.13,0,.1,0,.09,0,.09,0,.11,0,.11,0h.21l.14,0,85.67-9,1.67-.27,1.86-.5,1.73-.65,1.62-.79,1.5-.89,1.4-1,1.29-1.08,1.06-1,.33-.35.22-.24.21-.24.2-.24.21-.25.21-.26.19-.24.28-.37.34-.49.16-.23.19-.29.17-.26.12-.2.3-.49,1.46-2.6h0l3.77-6.73,55.11-4.87.7-.07.79-.1.84-.12.87-.16.9-.19.94-.24,1-.29,1-.35,1.15-.46,1.2-.57,1.23-.69,1.23-.82,1.21-1,1.17-1.11,1.1-1.27.84-1.19,46.64-74.23.9-1.44.81-1.34.72-1.26.64-1.24.55-1.3.45-1.52.17-2-.56-2.4-1.6-2.08-1.94-1.14-1.72-.48-1.53-.17-1.49,0-1.54.07-1.67.14-1.83.19L519.84,281l-1,.13-1.06.16-1.06.2-1.06.24-1.07.29-1.08.35-1.08.43-1.1.52-1.2.68-1.17.79-1.1.9-1,1-.87,1-.74,1-.6.93-.45.77-2.82,5.11L391,308l-1.5.21-1.61.3-1.59.37-1.57.43-1.55.5-1.53.57-1.5.63-1.47.69-1.45.76-1.41.82-1.38.88-1.35.94-1.31,1-1.26,1.07-1.22,1.13-1.11,1.14-.5.55-.44.5-.43.51-.42.52L366,322l-.4.54-.39.55-.38.56-.37.57-.36.58-.35.59-.34.61-.33.61-.31.62-.31.64-.27.59,0,.09-29.08,66.56L304,328.53l0-.09-.27-.59-.31-.64-.31-.62-.33-.61-.34-.61-.35-.59-.36-.58-.37-.57-.38-.56-.39-.55-.4-.54-.41-.53-.42-.52-.43-.51-.44-.5-.5-.55-1.11-1.14-1.22-1.13-1.26-1.07-1.31-1-1.35-.94-1.38-.88-1.41-.82-1.45-.76-1.47-.69-1.5-.63-1.53-.57-1.55-.5-1.57-.43-1.59-.37-1.61-.3-1.5-.21L164.78,295.43,162,290.33l-.45-.77-.6-.93-.74-1-.87-1-1-1-1.1-.9L156,284l-1.2-.68-1.1-.52-1.08-.43-1.08-.35-1.07-.29-1.06-.24-1.06-.2-1.06-.16-1-.13-73.91-8.51-1.83-.19-1.67-.14-1.54-.07-1.49,0-1.53.17-1.72.48-1.94,1.14L59.05,276l-.56,2.4.17,2,.45,1.52.55,1.3.64,1.24.72,1.26.81,1.34.9,1.44,46.64,74.23.84,1.19,1.1,1.27,1.17,1.11,1.21,1,1.23.82,1.23.69,1.2.57,1.15.46,1,.35,1,.29.94.24.9.19.87.16.84.12.79.1.7.07,55.11,4.87,3.77,6.73h0l1.46,2.6.3.49.12.2.17.26.19.29.16.23.34.49.28.37.19.24.21.26.21.25.2.24.21.24.22.24.33.35,1.06,1,1.29,1.08,1.4,1,1.5.89,1.62.79,1.73.65,1.86.5,1.67.27,85.67,9Zm25.3,39.26-17.56-40.51-.12-.25-.1-.17-.13-.19-.16-.2-.19-.21-.22-.22-.25-.23-.27-.23-.3-.23-.33-.23-.35-.22-.37-.21-.39-.2-.41-.19-.42-.18-.45-.17-.14,0-.16-.06-.17-.05-.17-.05-.17-.05-.17,0-.19,0-.17,0-.17,0-.17,0-.17,0-.17,0-.15,0-.15,0-.16,0-.21,0-85.56-9-1.26-.2-1.34-.36-1.27-.48-1.2-.58-1.12-.67-1.06-.75-1-.82-.84-.82-.22-.24-.17-.18-.16-.19-.16-.18-.16-.19-.15-.19-.14-.18-.19-.25-.26-.37-.12-.18-.14-.21-.13-.2-.11-.17-.24-.39-.74-1.32h0l-5.78-10.34L126,366l-.61-.06-.67-.08-.69-.1-.71-.13-.73-.15-.75-.19-.76-.22-.78-.27-.88-.35-.89-.42-.89-.5-.88-.59-.85-.68-.82-.78-.76-.88-.61-.86-46.57-74.1c-5-7.89-5.31-9.1,4.63-8l73.85,8.5.94.12.92.14.88.16.85.19.83.23.81.26.79.31.78.36.85.48.8.54.75.61.67.65.59.68.51.69.44.67.35.61,4.1,7.43,113,12.83,1.33.18,1.38.25,1.36.31,1.35.37,1.34.43,1.32.49,1.3.54,1.27.6,1.25.65,1.22.71,1.19.76,1.16.81,1.12.86,1.08.91,1,1,1,1,.41.44.37.42.36.43.35.44.35.45.34.45.33.46.32.47.31.48.3.49.3.49.29.5.27.51.26.51.25.53.23.5,0,.06,31,71-16.69,38.2-.31.74-.32.84-.29.86-.25.85-.23.86,0,.09ZM474.26,385l-.16.19-.16.18-.16.19-.17.18-.22.24-.84.82-1,.82-1.06.75-1.12.67-1.2.58-1.27.48-1.34.36-1.26.2-85.56,9-.21,0-.16,0-.15,0-.15,0-.17,0-.17,0-.17,0-.17,0-.17,0-.19,0-.17,0-.17.05-.17.05-.17.05-.16.06-.14,0-.45.17-.42.18-.41.19-.39.2-.37.21-.35.22-.33.23-.3.23-.27.23-.25.23-.22.22-.19.21-.16.2-.13.19-.1.17-.12.25-27.12,62.54C335,488,333,488,324.24,470.24l-5.85-11.86,0-.07-.2-.42-.13-.3-.13-.3-.12-.31-.11-.3-.11-.31-.1-.31-.09-.31-.08-.29-.08-.3-.08-.3-.07-.3-.07-.3-.06-.31-.06-.33-.05-.33-.1-.7-.07-.76,0-.75v-1.49l0-.74.07-.74.09-.72.11-.72.14-.72.16-.71.19-.7.2-.68.23-.68.25-.67.26-.61,48.62-111.27,0-.06.23-.5.25-.53.26-.51.27-.51.29-.5.3-.49.3-.49.31-.48.32-.47.33-.46.34-.45.35-.45.35-.44.36-.43.37-.42L372,323l1-1,1-1,1.08-.91,1.12-.86,1.16-.81,1.19-.76,1.22-.71,1.25-.65,1.27-.6,1.3-.54,1.32-.49,1.34-.43,1.35-.37,1.36-.31,1.38-.25,1.33-.18,113-12.83,4.1-7.43.35-.61.44-.67.51-.69.59-.68.67-.65L512,289l.8-.54.85-.48.78-.36.79-.31.81-.26.83-.23.85-.19.88-.16.92-.14.94-.12,73.85-8.5c9.94-1.14,9.58.07,4.63,8l-46.57,74.1-.61.86-.76.88-.82.78-.85.68-.88.59-.89.5-.89.42-.88.35-.78.27-.76.22-.75.19-.73.15-.71.13-.69.1-.67.08-.61.06-57.85,5.11-5.78,10.34h0l-.74,1.32-.24.39-.11.17-.12.2-.14.21L475,384l-.26.37-.19.25-.14.18-.15.19Z" transform="translate(-52 -272)" style="fill:#231f20;stroke:#231f20;stroke-miterlimit:2.613100051879883;stroke-width:0.2160000056028366px;fill-rule:evenodd"/><path d="M343.43,526H342l-1.63.51-30.72,24.15h-.93l-.7-.77-10.47-22.61L296.35,526H284.71v1.28L298,555l.7,1,.7.51h14l1.86-1.54,31.29-22.89h46.84v0h34.52l.06,0h2.23l0,0h24l.47.51v.77l-8.84,22.1-.47.51.7.51h10.47l.93-1,8.84-22.1,1.16-.77.47-.51h36.77l1.16.51v.77l-9.54,22.1v1h11.17l.47-1,9.54-22.1.47-.77,1.16-.51h8.16v0h41.16v0H607.7l1.21-.51.48-.77,1.69-3.6V526H592.16v0H343.43v0Zm194.62,11.58-4.19,8.72-.48,2.57v3.6l1.21,1.28,1,1.28,1.93,1,1.45.51h58.63l1-.51.48-.51,1.69-3.6v-1.28H548.35l-1.21-.77-1.21-.51v-1.28l.72-1.28,3.66-9.23Zm-183.85,0-3.81,8.72-.76,2.57v3.6l1.27,1.28,1.27,1.28,1.78,1,1.78.51h61.45l1-.51.51-.51,1.78-3.6v-1.28h-55.1l-1.78-.77-.51-.51v-1.28l.51-1.28,3.85-9.23Z" transform="translate(-52 -272)" style="fill:#231f20;fill-rule:evenodd"/><polygon points="111.01 253.96 98.49 253.96 95.03 253.96 92.05 254.47 89.58 255.25 87.35 256.53 84.37 259.61 82.64 263.21 77.69 274.26 76.7 276.83 76.7 278.63 76.7 280.43 77.69 281.71 78.92 283 80.66 284.02 82.39 284.54 142.58 284.54 144.56 284.02 147.04 283 149.27 282.23 150.51 280.43 152.24 278.63 153.97 274.77 158.42 265.54 145.57 265.54 141.59 275.54 140.35 276.83 139.86 277.86 138.12 277.86 136.39 278.63 92.05 278.63 90.81 277.86 89.58 277.34 89.58 276.06 90.32 274.77 95.03 263.21 96.02 261.93 97.25 260.64 99.73 260.13 136.77 260.13 136.77 260.11 159.92 260.11 165.3 260.11 178.34 260.11 178.34 260.13 212.7 260.13 213.86 260.13 214.33 260.64 214.33 261.93 213.86 264.5 212.7 265.52 211.07 265.52 178.34 265.52 178.34 265.54 177.07 265.54 176.16 266.29 175 266.81 173.83 269.89 173.83 271.18 174.3 271.69 188.96 277.34 202.69 283.51 204.55 284.54 225.03 284.54 225.5 284.02 225.03 283.51 224.33 283 196.17 272.46 213.86 272.46 217.12 271.69 219.91 271.18 222.24 269.38 223.87 267.58 225.5 264.5 226.66 260.64 227.12 258.33 225.96 256.53 225.5 255.25 224.33 254.47 222.24 253.96 219.91 253.96 216.6 253.96 216.6 253.94 111.01 253.94 111.01 253.96 111.01 253.96" style="fill:#231f20;fill-rule:evenodd"/></svg>